<?xml version="1.0" encoding="utf-8"?>
<!-- Generator: Adobe Illustrator 22.1.0, SVG Export Plug-In . SVG Version: 6.00 Build 0)  -->
<svg version="1.1" id="Calque_1" xmlns="http://www.w3.org/2000/svg" xmlns:xlink="http://www.w3.org/1999/xlink" x="0px" y="0px"
	 viewBox="0 0 643 643" style="enable-background:new 0 0 643 643;" xml:space="preserve">
<style type="text/css">
	.st0{fill:#FEFEFE;}
	.st1{fill:#0E0B0A;}
	.st2{fill:#FDFDFD;}
	.st3{fill:#FB0101;}
	.st4{fill:#FCB32B;}
	.st5{fill:#FCFCD8;}
	.st6{fill:#FBFBFB;}
	.st7{fill:#FDCB02;}
	.st8{fill:#D3D4D2;}
	.st9{fill:#BB0202;}
	.st10{fill:#FA8A03;}
	.st11{fill:#FBB403;}
	.st12{fill:#E8A004;}
	.st13{fill:#F7E5A4;}
	.st14{fill:#F6B614;}
	.st15{fill:#D24406;}
</style>
		<path class="st1" d="M448,1c6.4,1.3,12.8,2.5,19.2,4c12.7,3,24.8,7.7,35.3,15.5C510,26.1,516,33,519.3,41.8
			c3.5,9.2,1.1,16.3-7.4,21.3c-7.5,4.5-15.8,6-24.3,6.9c-3.4,0.4-6.9,0.6-11.2,1c3.2,2.5,5.8,4.5,8.3,6.5c10.5,8.7,13.2,17.7,8.2,27
			c-5.8,10.7-16.3,14.7-29,10.8c-2.5-0.8-5-1.6-8.2-2.7c1.2,2.6,2.1,4.4,2.8,6.3c2.5,6.7,1.2,11.2-4.7,15.1
			c-1.9,1.2-2.4,1.9-1.3,4.1c10.3,20.1,10.7,41.7,9,63.4C460,221,454,239.3,445,256.6c-1,1.9-2.3,3.5,0.9,5
			c9.9,4.7,19.5,10,29.6,14.3c3,1.3,4.1,0.8,5-2.5c4.7-16.9,12-32.5,24.8-44.9c10.6-10.2,23.2-15.9,38-16.5
			c11.5-0.5,23-0.3,34.2,3.1c6.6,2,13,4.6,15.5,12c2.2,6.5,0,10.6-6.5,12.5c-15,4.5-28.1,12-38.5,23.9
			c-9.6,11.1-12.4,24.4-12.9,38.5c-1,26.9,0.4,53.6,2.3,80.4c0.3,4.8,0.3,9.7,1.1,14.4c0.9,5.2-0.8,9.1-4.5,12.4
			c-5.1,4.5-10.2,9.1-15.5,13.4c-12.8,10.1-23.9,22.2-37.3,31.6c-7.4,5.2-14.8,10.2-22.8,14.3c-5,2.5-9.1,1.8-13.2-1.8
			c-1.3-1.2-2.4-3.5-5.1-2.4c0.4,0.6,0.7,1.1,1.1,1.6c5.3,7.1,5.7,8.6-2.5,12.5c-9.7,4.6-16.6,11.4-22.8,19.8
			c-3.5,4.7-8.3,8.2-13.4,11c-2.3,1.3-3,2.7-2.2,5.2c2.1,6.7,2.4,14.6,6.4,19.7c4,5.2,12.5,3.5,19,5c13.1,3.1,26.3,5.7,38.6,11.5
			c18.4,8.6,29.3,23.7,35.6,42.3c4.1,12.1-0.3,23.2-10.8,30.6c-12,8.6-25.8,12.1-40.3,13.2c-24.9,2-49-2.2-72.6-10.4
			c-15.1-5.2-21.8-15.6-23.6-30.7c-1.9-16.4-0.4-32.6,1.8-48.8c1-7.4,1.9-14.8,0.7-22.4c-0.4-2.6-1.3-3.5-3.7-3.2c-1,0.1-2,0-3,0
			c-9.2-0.1-9.2-0.1-8.2,9.3c1.1,11,1.6,21.9,1,32.9c-0.4,6.8-2.9,11.3-10,13.6c-20.7,7-41.7,12.6-63.6,14.5
			c-10.2,0.9-20.3,0.9-30.2-2.4c-14.2-4.8-20.5-16.6-16.6-31.1c6-22.2,24.8-36.7,49.4-38.1c9.9-0.6,19.7,0.1,29.2,2.6
			c5.3,1.4,4.9-3,6.4-5.6c1.9-3.2-1.1-3.3-2.8-4.2c-12.4-6-23.8-12.9-28.3-27.1c-0.8-2.4-3-3.2-4.8-4c-9.1-4.4-11.1-11.6-9.7-21
			c2.4-16.3,7.5-31.7,12.8-47.1c0.5-1.4,1-2.8,1.6-4.3c-5.3-0.8-10.3-1.4-15.4-2.3c-2.3-0.4-2.6,0.7-2.5,2.4
			c0.8,13.3-7.8,20.1-18.1,25.5c-8.8,4.7-18.4,6.8-28.3,7.6c-17.5,1.4-35,0.6-52.1-3.9c-10.6-2.8-20.2-7.1-24.8-18.2
			c-0.3-0.7-0.9-1.8-1.5-1.9c-6.9-0.8-13.2-5-20.4-3.6c-13.6,2.7-26.9,1.3-40-2.6c-5.8-1.7-9.4-6.1-12-11.3
			c-4.6-8.9-6.5-18.5-7.5-28.3c-2.7-26.6-1.3-52.9,5.6-78.8c3.8-14.2,10.7-18.4,25.5-16.6c5.6,0.7,11.1,2.1,16.5,3.8
			c1.2,0.4,2.4,1.5,3.4-0.3c0.8-1.4,1.3-2.7-0.1-4c-0.1-0.1-0.2-0.2-0.3-0.4c-7.7-9.7-12-20.2-6.6-32.4c6.7-15.1,17.3-26.1,34.3-29
			c3.2-0.6,3.5-1.4,3.7-4.4c0.7-10.5,8-16.6,16.5-20.9c12.5-6.2,26.2-7.2,40-6.7c16.6,0.6,31.2,6.4,43.8,17c1.9,1.6,3.2,1.2,5.3,0.6
			c7-2.1,10.7-5.5,10.6-13.8c-0.1-10.9,1.3-21.9,5.8-32.2c0.7-1.6-0.1-2.4-0.8-3.5c-3.3-5.4-3.5-9.5,1.3-13.3
			c7-5.4,11.9-14.3,22.5-14.2c1.1,0,2.3-1.2,3.3-2.1c15.5-13.1,33.2-22,53-26.6c2.6-0.6,3.6-1.3,3.1-4.2
			c-5.6-32,14.7-73.9,56.2-84.9c7.3-1.9,14.7-3.4,22-5.1C427.3,1,437.7,1,448,1z M468.2,75.7c-0.4-0.2-0.8-0.4-1.2-0.7
			c-5.1-2.2-10.3-4.5-15.4-6.7c0.1-0.3,0.1-0.6,0.2-0.8c3.4-0.2,6.9-0.4,10.3-0.5c6.9,0.4,13.7-0.5,20.6-1.6c7.2-1.1,13.8-3,20-6.5
			c5.6-3.2,8.8-9.3,7.2-14.6c-4-12.8-12.6-21.7-24.8-27.2c-0.2-0.2-0.5-0.3-0.7-0.3c-0.2-1.3-1-1.9-2.3-1.7
			c-8.2-4.5-17.3-6.9-26.4-7.7c-21.7-2.1-43,0-63.1,9.4c-26.2,12.3-43.3,31.9-48,60.9c-1.7,10.8-0.3,21.5,5.5,31.2
			c1,1.9,1.5,5,4.6,3.2c3.6-2,7.5-3.5,11.4-4.3c9.1-1.9,18.3-2.1,27.5,0.2c8.4,2.1,15.1,7.5,22.4,11.8c8.4,5,16.9,10.5,27.4,9.2
			c3.8-0.5,7.6-1.7,9.2-5.6c1.4-3.4-0.2-6.4-2.3-9.1c-3-4-6.7-7.3-10.6-10.2c0.8-1,1.7-0.8,2.6-0.3c3.1,1.5,6.3,2.6,9.7,3.3
			c3.3,3.5,7.9,2.2,11.8,2.6c7,0.8,13.4-1.6,17.9-7.5c6.6-8.9,0.8-21.3-11.7-25l0,0C469.4,76.6,468.8,76.2,468.2,75.7l-0.1,0.3
			C468.1,76,468.2,75.7,468.2,75.7z M410,193c1.4,0.1,2-0.4,2-2c0.4-11-10-24.1-20.8-26.1c-9.4-3.7-18.8-3.5-27.9,1.1
			c-1,0.5-3.6,1.1-2.4,2.7c1.9,2.5,0.1,2.1-1.3,2.2c-4,0.2-6.9,2.2-8.8,5.5c-1.4,2.4-1.6,5.7,0.3,7.5c2.4,2.2,2.9-1.7,4.4-2.6
			c2.6-1.5,5.1-3.1,8-3.9c4-1.2,8.2-1.2,12.4-1.2c17.5,3.7,27.8,14.1,29.7,32.2c0.3,3.3,1.9,2.9,4,1.7c2-1.1,2.4-2.9,2.7-5
			C412.9,200.7,410.4,197.1,410,193L410,193z M296.1,127.2c-8.6-1.9-17.6-1.7-24.2,4c-3.7,3.2-8.2,5.6-11.4,9.5
			c-2.7,3.3-2.1,7.5,1.3,10.2c-6.3,9.8-8.3,20.4-6,31.7c2.1,10.4,4.7,12,15.2,11.1c7.4,0.7,15.1,0.1,22.2,2.6c3.9,1.3,6.7,1,9.3-2.1
			c1.7-2.2,1.7-2.2-1.8-3.8c2.1-2.9,4.6-5.9-0.7-8.2c-1.1-0.5-0.7-1.3-0.6-2.1c0.9-4.3,5.5-6.1,9.5-3.8c0.4,1.9,1.7,3.6,1.2,6.7
			c6.5-10.8,5.2-18.7-4.3-29.9c-3.2-4.8-8.1-7.3-13.4-8.9c-11.5-3.6-21.5,0.3-30.9,6.8c0.1-2.3,2.3-3.2,3.4-4.8
			c18.4-13,47.6-2.4,51.2,23.3c0.2,1.1,0.1,2.7,1.3,3.1c1.5,0.4,2.9-0.6,3.9-1.7c1.8-1.8,1.4-4.3,1.4-6.6c0.1-3.8-1.9-7-1.7-11.3
			C321.8,140.2,309.4,128.6,296.1,127.2z M268.9,403.6c7.7,1.1,7.6,1.1,10.4-5.6c2.5-6.1,5.2-12.2,7.7-18.4c0.7-1.8,3.6-4.1-1.3-4.9
			c-1.9-0.3-1.2-3-0.5-4.3c5.1-9.2,2.6-17.9-1.7-26.4c-1.9-5.8-3.7-11.5-5.7-17.3c-2.6-7.7-2.6-7.5-10.9-7.9
			c-2.8-0.1-3.5,0.8-3.6,3.2c-0.2,4.1-0.6,8.3-0.9,12.4c-1.1,15.9-2.3,31.7-3.4,47.6c-0.4,6-0.8,12-1.2,18
			C260.6,404.1,265.2,402.5,268.9,403.6z M93,381c-2.8-2.9-5.9-5.3-9.6-7.3c-2.2,9.1,0.2,16.1,6.9,21.9c5.7,5,11.8,9.3,18.7,12.3
			c18.1,7.9,37,8.8,56.4,7.3c4.7-0.4,5.6-2.4,4.9-6.3c-0.2-1.4,0-3-1.1-4.3c-2.9-7.9-4.1-8.9-12-8.6c-13.1,0.3-25.9-1.1-38.6-4.4
			C109.6,389.3,101.4,384.8,93,381z M312.1,335.2l0.2-0.1c8-0.2,13.1-5.1,16.8-11.3c5.1-8.3,9.6-17,14.3-25.5
			c5.2-9.5,10.2-19.1,15.4-28.7c-1.5-1-2.9-0.5-4.4,0c-5.6,1.9-11.4,3.4-17.4,3.4c-8.7,0.1-17.5,0.3-26.1-1.8
			c-3.8-1.2-5.1-0.2-5,4.1c0.2,19.3,2.4,38.6-0.2,57.9c-0.4,2.9,1.6,3.7,4.2,3.2C311,336.9,311.9,336.7,312.1,335.2z M91,306.9
			c-9.1,12.6-7.8,24.8,3.7,34.8c4.8,4.1,10.1,7.5,15.9,10.1c19,8.7,39,10.2,59.5,8.1c2.6-0.3,3.5-1.5,3.4-3.8
			c-0.1-2.1,0.2-4.3-1.2-6.2c-1.6-6.5-6.4-10.3-11.4-13.9c-6.3-4.4-13.8-6.5-20.7-9.6c-3.4-1.5-5-1.8-6.6,2.6
			c-2.9,8.2-8.4,14.3-17.5,16c-13-1.2-19.7-8.4-21.5-23.1c0.5-3.9,1.1-7.8,1.6-11.6c0.2-1.4,1.8-3.2,0.5-3.9
			C95,305.5,92.6,304.5,91,306.9z M337.1,394c2.5,1.6,5.1,0.9,7.6,0c8.8-3.3,13.2-11.5,11-22.9c-2.3-11.4-6.3-22.5-7.9-34.6
			c-2.2,1.6-3.8,2.6-4.8,4.4c-6.4,4.7-13.4,8.9-19,14.4c-6,5.9-10.8,13.1-10,22.4c0.2,2.6,1.3,4.8,3.3,6.4c1,0.8,2,1.3,3.2,0.9
			c1.8-0.6,0.6-2,0.6-3c0.1-2.6,0.2-5,2.1-7.6C327.9,389.6,329,391.1,337.1,394z M88.2,342.9c-1.4-0.5-1.9-5.1-4.4-1.1
			c-5.7,9.1-4.4,20.3,3.1,28c5.5,5.7,12.1,9.9,19.2,13.2c17.9,8.1,36.7,10,56.1,8.2c7.2-0.7,8.2-1.9,6.6-9c-0.3-1.2-1-2.4-1.5-3.6
			c-4.5-8-10.3-13.3-20.5-13.9C125.1,363.6,105.2,356.9,88.2,342.9z M417.8,629c10.2,1.6,20.4,1.8,30.5,0c8.3,0.5,15.6-3.2,23.3-5.3
			c1.6-0.4,2.5-1.4,2.3-3.3c-1.2-11-4.1-21.4-10.8-30.4c-0.1-0.3-0.1-0.6,0-0.9c2.6-0.6,3.9,1.3,5.4,2.9c3.9,4.3,6.2,9.4,7.6,15
			c1,4.2,1.8,8.6,2.7,12.9c9.7-5.2,12.8-10.7,10.7-20.8c-3.4-16.7-12.2-30.1-26.1-39.9c-8-5.6-17.5-7.8-26.7-10.7
			c-13.8-4.4-27.7-6.6-42-7.7c-2.1-0.2-4.2-0.2-6.8-0.3c3.3-3.5,9.5-1.5,10.3-5c0.8-3.4-1.8-7.6-2.8-11.4c-2.5-9.1-2.6-9.4-11.7-6.5
			c-3.3,1.1-7.3,0.3-9.9,3.3c-4.8,0.4-9.6-0.4-14.8,0.7c3.2,10.5,2.4,21,0.8,31.6c-1.8,11.9-2.2,23.8-1.6,35.8
			c0.4,7.4,1.6,14.8,5.7,21.3c1.5,3.1,3.9,5.4,7,6.8C385.6,624.2,401.3,628.2,417.8,629z M365.9,267L365.9,267
			c-3.7,2.8-5.5,7-7.8,10.8c-10.5,17.6-19.3,36.1-30.2,53.4c-4.7,7.5-11.6,11.8-20.3,13c-6.9,0.9-8.3-0.6-7.1-7.4
			c0.3-1.8,0.4-3.6,0.5-5.5c1.2-17.8,0.7-35.6,0.3-53.5c-0.1-2.2-0.1-4.3-0.2-6.5c-0.1-4.5-4-4.1-6.6-4.3c-3-0.3-1.4,2.7-1.4,4.1
			c-0.1,3.8,0.3,7.7,0.4,11.5c0.5,25.5,2.2,50.9-0.9,76.4c-0.8,2.6-3.9,5.4-1.7,7.7c2.6,2.6,6,0.1,8.6-1.5c9.3-6,19-11.5,27.9-18.2
			c13.1-10,24.9-21.1,31.6-36.4c3.3-7.4,5.8-15.2,8.9-22.7c5.1-12.6,8.8-26,19.2-35.9c2.8-2.7,1.7-5.5-2.1-6.8
			c-3.9-2.9-8.5-3.4-13.1-4.1c-16.3-2.4-28.5-10.2-34.9-26.1c-4-10.1-9.3-12.8-19.9-10.9c-6.7,1.2-13.2,0.6-19.5-2
			c-3.4-1.4-6.7-2.8-10.4-3.2c-10.9-1.1-21.6-0.2-32.1,2.5c-2.6,0.6-5.2,1.1-7.6,1.9c-13.6,4.8-26,11.3-34.3,23.9
			c-2.5,2.3-3.8,5.4-5.2,8.4c-1,2.2-3.3,4.8-1.8,6.8c1.9,2.4,5.3,2.3,8.4,1.9c0.7-0.1,1.3-0.1,2-0.4c8.6-3.4,17.7-3.2,26.6-2.5
			c14.4,1.1,27.8,4.5,40.2,13c19.5,13.5,41.5,17.7,65.1,13.5c10-1.8,19.5-5.1,29.2-8.2c-3.6,2-7.1,4-10.7,6.1
			C366.6,266.1,366.3,266.5,365.9,267z M84,397c-4.7-5.7-10.7-10.4-11.8-18.5c-3.1-22.6-1.9-45.1,2.3-67.5c0.4-2.4,1.3-4.7,3.9-5.4
			c5.3-1.4,10.2-4.7,16.1-3c3.1,0.9,5.2,0,5.5-3.6c3.2-7.4,1.9-10.2-5.6-12c-2.3-0.5-4.6-0.9-6.9-1.3C73,283.7,66,288,61.8,302.1
			c-5.3,17.7-6.6,36-6.2,54.4c0.3,11.4,1.6,22.5,5.1,33.4c3.9,11.9,11.3,19.3,24,20.8c6.3,0.7,12.6,1.6,19.8-0.7
			C96.4,406.5,90.2,401.8,84,397z M365.9,235.4c11.8,4,21.6,0.8,30.5-7.8c-1.9-0.5-3.6,0.3-5.1-0.9c2-2.7,4.4-6,0.2-7.7
			c-2.9-1.2-1.7-2.1-1.1-3.4c1.4-2.6,3.4-5,6.5-4.4c3,0.6,3.1,3.5,3.1,6.1c0,0.6-0.1,1.4,1.2,1.7c2.3-2.9,3.3-6.2,2.6-9.9
			c-1.3-7.1-3.8-13.9-8.5-19.5c-6.3-7.5-14.1-12.1-24.4-10.6c-12.2,0.3-19.5,5.7-23,17.2c-0.7,2.2-1.3,4.5-1.7,6.7
			C342.8,220.8,349.4,231.6,365.9,235.4z M166.7,298.9c-10.2-0.1-17.8-5.7-25.3-12.9c-0.6,7-2.8,12.4-6.7,17
			c0.4,12.8,1.1,13.8,12.3,18c1.6,0.6,3.1,1.2,4.6,1.9c15,6.4,24.4,17.4,27,33.8c1.1,6.5,1.1,6.7-5.5,7.7c-1.2,0.2-2.1,1.3-3.1,1.3
			c-4.2,0-3.1,2.1-1.9,4.3c3.1,5.9,5.7,12,6.4,18.7c0.4,3.6,1.3,7.2-4.7,6.6c3.6,6.8,5.7,13.1,6.2,20.1c0.2,2.7-0.7,3.7-3.5,4
			c-6.8,0.8-13.6,0.8-20.4,1.2c-3.2-0.2-6.5-0.3-10.4-0.5c4.1,6.1,9.6,8.9,15.6,10.9c15.7,5.3,31.9,6.4,48.3,5.4
			c12.1-0.7,23.7-3.3,33.9-10.3c7.8-5.4,12.2-12.1,12.7-22.3c1.6-31.9,4.2-63.8,6.4-95.7c0.7-9.5,1.2-19,1.8-28.8
			c-3.9,1.8-7.2,3.4-10.5,4.7c-6,2.4-12.2,3.7-18.5,1.8c-2.7-0.8-3.4,0-4.5,1.9c-3.2,5.5-8,8.1-14.6,7.5c-8.5-0.8-16.3-3-23.2-8.2
			c-2-1.5-3.1-2.1-5,0.3C179.8,293.1,173.9,297.1,166.7,298.9z M414.6,489.5c-0.9-1.2-2.1-0.7-3.2-0.4c-16.1,3.7-32.4,5.7-48.8,6.4
			c-26,1.1-52.1,3.5-77.4-5.7c-0.4-0.2-0.8-0.3-1.1-0.5c0.1,0.4,0.2,0.8,0.2,1.2c3.9,6.9,9.6,11.8,16.3,15.7
			c10.2,6,21.4,9,33.1,10.3C364.8,519.9,393.8,516.7,414.6,489.5c-0.1-0.1-0.3-0.2-0.3-0.2c0.2-0.4,0.1-0.5-0.3-0.3
			C414.2,489.1,414.4,489.3,414.6,489.5z M276.9,585c6.2,0.2,12.2-1.6,18.2-2.6c10.1-1.7,19.7-5.3,29.6-7.8c7.4-1.8,11.8-5.7,12-14
			c0.3-13.2-0.8-26.2-2.5-39.3c-0.2-1.5-0.6-2.4-2.4-2.4c-4.3-0.1-8.6-0.4-12.9-0.6c-6.7-2.2-6.8-2.3-9.9,3.9
			c-1.7,3.4-3.9,5.2-8.1,5c-2.8-0.1-4.9-1.8-7.5-2.1c-8.6-0.9-17.3-1.4-25.9,0.1c-11,1.9-21.2,5.6-28.5,14.8
			c-10.6,11.3-14.1,27-7.2,33.3c0.7-6.8,3.4-12.7,7.2-18.2c3.2-2.8,6.1-6.1,11.4-7.1c-4.6,5-9.3,9-11.3,15
			c-6.6,15.1-4.2,20.2,11.2,22.1C259.1,586.9,268,586.4,276.9,585z M330.7,395.9c-3.1-2.1-5.4-6.4-9-6.4
			c-8.3-0.1-14.1-2.4-15.7-11.7c-1.5,4.9-3.6,9.3-4,14.2c-2.1,3.8-1.9,6,3.3,6.2c3.6,0.1,7.2,1,10.9,1.5c13.7,1.7,27.3,4,41.2,0.7
			c6-1.4,9.6-4.3,10.8-10.2c3-15.5,11.3-28.3,20.4-40.7c1.4-1.9,2.3-3.9,2.7-6.3c1-5.5,1.4-11.6,5.7-15.7c3.8-3.6,3.8-6.8,1.9-11
			c-3-6.7-5.4-13.7-5.6-21.1c-0.4-12.2,8.3-17.6,19.2-12.1c2.4,1.2,4.6,2.8,8.1,3.4c-2.7-5.8-5.8-10.5-7.1-16
			c-2-8.4,3.4-15.5,12-15.5c2.5,0,5.1,0.2,7.3,1.1c3.4,1.4,4.5,0.1,5.7-2.9c9.6-22.8,13.8-46.5,12.3-71.2
			c-0.9-15.4-3.2-30.5-11.8-43.9c-1.5-2.3-3.1-4-5.9-4.8c-6.4-1.8-12.5-4.6-18.2-8c-6.4-3.8-12.6-8.2-19.2-11.6
			c-13.6-7-27.1-6.9-40.1,1.9c-2.6,2.2-4.8,1.6-6.6-1.1c-2-3.1-4.3-6-5.7-9.3c-1.4-3.5-3.4-3.7-6.6-2.9
			c-14.9,3.6-28.6,9.6-41.1,18.6c-0.9,0.7-2.6,0.9-2.3,2.9c1.5,0.1,3,0.1,4.4,0.2c12.2,1.3,21.3,7.6,25.5,18.8
			c3,8.1,3.6,17.2,2.9,26.1c-0.1,1.1-0.5,2.7-1.3,3.1c-5.6,3.1-9.7,7.2-12.1,13.6c-0.6,1.7-0.5,4.2-2.5,6c-2.4,2.2-4.5,4.9-7.4,7.4
			c4.4,1.4,8.1,1.5,11.6,0.7c9.6-2.1,16.4,2.3,22.4,8.9c1,1.1,2,2.3,3.5,4.1c1-8.8,3.2-16.2,6.7-23.2c1-2,0-3-0.8-4.4
			c-2.6-4.6-2.2-8.7,2.1-11.3c5.4-3.3,10.3-6.9,14.7-11.4c0.6-0.6,1.4-0.9,2.1-1.3c12.8-6.7,32.8-2.3,41.7,9
			c9.2,11.6,9.3,25.2,8.9,38.9c-0.1,3.7-3.2,5.8-6.5,6.7c-1.9,0.5-3.3,1-4,3.1c-3.5,10-10.3,16.8-20.7,20.6c1.1,0.5,1.8,0.9,2.5,1.3
			c7.3,3.1,8.5,6.4,4.7,13.5c-0.5,1-1.1,2.1-1.8,3c-8.7,10.5-12.8,23.1-17.3,35.7c-4.3,12.2-8.3,24.7-17.2,34.6
			c-2.7,3-3.6,6.2-3.4,10c0.6,9,2.5,17.8,5.1,26.4c0.8,3,1.7,6,2.4,9.1c2.9,12.1-2.2,21.7-13,24.7
			C341,399.3,335.8,397.9,330.7,395.9z M301.9,403.3c-0.8-0.1-1.7-0.2-2.5-0.3c-5.8-0.5-6.6-1.6-5.1-7.2c0.9-3.2,1.9-6.3,2.8-9.5
			c1.6-5.8,4.2-11.1,7.1-17.7c-1.9,1.3-2.5,1.9-3.2,2.2c-5.3,2.1-9.4,4.8-11.5,10.9c-4.6,13.3-9.3,26.6-12.9,40.2
			c-3.8,14.1-7.4,28.3-6.6,43.2c0.2,4.4,1.8,7.9,5.2,10.8c1.3,1.1,2.9,2.7,4.3,1.9c1.9-1.2,0-2.9-0.6-4.3c-1.9-4.8-3.5-9.7-2.6-15
			c0.3-1.7,1.1-3.5,3.1-3.3c2.8,0.3,0.2,2.2,0.7,3.4c0.3,0.8-0.2,1.9-0.3,2.9c-0.6,10.3,7.2,21,16.7,24.1c5.2,1.7,10.5,1.4,15.8,1.9
			c21.9,2.3,43.9,1.6,65.8,0.9c2.2-0.1,4.6-0.3,6.4-2.2c4-4.2,7.6-8.6,9.7-14.1c3.7-5,3.7-11.1,5-16.8c6.8,14.3-2,22.9-11.7,31
			c0.9,1.4,2,1,2.9,0.9c11.3-1,22.5-2.8,32.9-7.9c11.5-5.7,12.1-6.7,6.8-17.4c-6-12.2-9.9-25.2-16.3-37.2
			c-7-13.2-13.8-26.5-18.5-40.6c-3.3-9.7-5.5-19.6-5.7-30c-1.2,1.6-2.1,3.1-2.8,4.7c-5,10.9-9.6,21.9-10.5,34
			c-0.5,6.6-2.4,8.6-8.7,10.2c-9.8,2.5-19.8,2-29.7,2.2C325.7,405.4,313.8,404.8,301.9,403.3z M105.6,333.3c7,6.6,14.3,6.3,20-1.3
			c5.8-7.7,7.3-16.6,5.8-26c-0.4-2.4-0.4-4.6,0.9-6.7c4.4-6.9,7.5-14.1,6.1-22.5c0-0.1,0.5-0.2,1.2-0.4
			c5.3,10.2,13.6,15.7,25.4,14.5c11.3-1.1,20-6.3,24.6-17.8c0.7,2.9,0.2,4.8-0.6,6.7c-0.7,1.5-0.8,2.6,0.9,3.7
			c6.9,4.3,14.2,7.4,22.5,6.5c3.4-0.4,6.3-1.9,8.9-4.1c3.1-2.6,3.2-5.4,0.5-9.4c13,9.2,24.3,8.7,35.5-0.6c1.3-1.1,2.5-1.9,1.8-4.1
			c-1.6-4.9-2.8-9.9-4.1-14.8c-0.8-8.7-0.8-8.9-8.9-9.2c-12.9-0.6-25.6,0.9-37.8,5.2c-3.2,1.1-6.3,1.3-8.6-1.6
			c-2.2-2.8-3.6-5.8-2-9.6c3.9-9.6,9.8-17.7,17.3-24.7c5-4.7,10.7-8.4,16.5-12.1c-6.7-5.7-14.1-9.6-20.6-11
			c-13.3-2.7-26.8-2.7-40.2-1.1c-7.5,0.9-14.7,2.5-21.4,6.3c-6.1,3.5-9.5,8.5-9.1,15.9c0.2,3-0.1,6,0.9,9c-1.6-0.2-2.2-1.1-2.5-1.9
			c-2.3-5.7-6.4-4.4-10.5-2.6c-13,5.9-21.7,15.7-26,29.3c-3.6,11.3-1.9,21.4,7.6,29.3c1,0.8,1.9,1.2,1.1,3.1
			c-2.6,5.9-4.8,11.9-7,17.9c-1.3,3.7-2.6,7.6-3.2,11.5C99.3,318.6,98.7,326.9,105.6,333.3z M406.9,337c0.3-1.6-0.1-3.4-1.5-3.8
			c-1.6-0.4-2.5,1.4-3.2,2.7c-0.8,1.4-1.5,3-2,4.6c-2.1,7.6-2.7,15.4-1.7,23.3c2.6,20.5,10.4,39.1,20,57.1
			c7.7,14.4,16.1,28.4,28,39.9c6,5.8,8.4,6,15.3,1.4c9.6-6.4,17.9-14.3,25.4-23c9.2-9.1,18.3-18.4,28.9-26c3.9-2.8,7.4-6.1,11.1-9.3
			c2.8-2.4,4-5.4,3.8-9.3c-0.3-7.2-0.3-14.3-0.4-21.5c-0.6-29.8-0.8-59.6,2.5-89.4c2.2-19.6,12.1-33.8,30-42.3
			c5.1-2.4,10.6-3.9,16-5.4c3.4-0.9,5.9-2.7,3.7-6.9c-0.2-1.5-1.3-2.2-2.5-2.8c-21-10.7-48-12.1-68.6,4.4
			c-15.5,12.4-23.3,29.5-29.1,47.8c-0.6,1.9,0.1,2.7,1.4,3.7c6.5,4.4,11.9,10,16.9,16c0.6,2.1,3,3.4,2.8,6.1
			c-0.7-0.4-1.2-0.5-1.5-0.9c-17.3-20.5-42.1-28.8-65.1-39.9c-0.3-0.1-0.7-0.1-1-0.1c-7.6-2.4-13.7-0.3-15,5.9
			c-1.7,8.6,0.5,17.1,6.7,23c11.6,11,20.3,23.7,27.7,37.6c0.5,1,1.9,2,0.5,3.3c-10.2-12.8-20.8-25.1-32.8-36.2
			c-8.1-4.7-16-2.1-18.3,6c-0.8,2.8-0.7,5.5-0.3,8.4c1.6,11,7,20.7,11.1,30.8c5,12.5,12,24,18.4,35.8c-2.2,0-2.9-2-4.1-3.3
			C420,363.5,412.7,350.7,406.9,337z M288.5,341c0.9-24.9,0.1-49.6-1.2-74.4c-0.1-2.3-1.2-3.1-3.1-3.8c-6.2-2.5-11.9-5.8-17.4-9.7
			c-1.7-1.2-3.5-2.4-6.2-2.4C266.4,282,280,310.7,288.5,341z M73.7,351c1.9-4.4,3.1-7.9,4.8-11.1c1.6-3,2.7-5.4,0.8-9
			c-2.2-4.4-1.2-9.4,0.2-14.1c0.3-1.2,1.6-2.5,0.4-4C76.1,317,73.7,331.4,73.7,351z M266.5,294.2c-0.3,0.1-0.6,0.1-0.9,0.2
			c-0.4,5-0.8,10-1.2,15c-0.2,1.8,0.8,2.3,2.3,2.5c1.9,0.1,3.9,0.3,6.4,0.5C270.7,306,268.6,300.1,266.5,294.2z M75.4,372.4
			c0.3,0,0.6,0,1,0.1c0.5-1.5,1.3-3,1.5-4.5c0.2-1.6-1.2-2.6-2-3.8c-0.2-0.2-1.1-0.3-1.3-0.1c-1,1.2-0.4,2.3,0.1,3.6
			C75.1,369.2,75.1,370.9,75.4,372.4z"/>
		<path class="st2" d="M582.8,229c2.2,4.1-0.3,5.9-3.7,6.9c-5.5,1.5-10.9,3-16,5.4c-17.9,8.5-27.8,22.7-30,42.3
			c-3.3,29.7-3.1,59.5-2.5,89.4c0.1,7.2,0.1,14.3,0.4,21.5c0.2,3.8-1,6.9-3.8,9.3c-3.7,3.2-7.2,6.5-11.1,9.3
			c-10.6,7.6-19.7,16.9-28.9,26c-2.2-0.4-3.8,1-5.6,1.6c-4,1.5-8.1,2.5-12.6,1.9c-14.7-2.1-23.2-12.4-31.3-23.4
			c-8.7-11.7-15.1-25-23-37.2c-8.9-13.8-12.3-28.7-7.8-44.9c5.8,13.7,13.1,26.4,23,37.6c1.1,1.3,1.8,3.3,4.1,3.3
			c1.7,2.9,5.4,4,6.3,8.3c1.1-2.7,0.7-4.4,0.2-6.2c-5-16.3-10.5-32.4-17.4-48.1c-3.4-7.7-7.9-15-9.7-23.3c-1.3-5.9,1.2-9.6,7-10.8
			c1-0.2,1.9-0.7,2.8-1c12,11.1,22.6,23.5,32.8,36.2c0,0,0-0.1,0-0.1c0.1,0.7,0,1.4,1.1,1.1l-0.1-0.1c-0.4,1,0,1.7,1.1,1.9
			c0.2,3.3,2.5,5.3,4.6,8.1c1.1-5.2-0.5-9.5-2-13.6c-5.8-16.8-15.3-31.7-24.1-46.9c-4.1-7.1-6.5-13.3-0.4-20.2c0.3,0,0.7,0,1,0.1
			c23.1,11.1,47.8,19.4,65.1,39.9c0.3,0.3,0.8,0.5,1.5,0.9c0.2-2.8-2.2-4.1-2.8-6.1c0.5-0.4,0.9-0.9,0.8-1.7c-1.6-8-1-15.9,1.4-23.6
			c8.5-27.2,25.8-47.7,58.5-45.9C568.7,227.3,575.7,228.2,582.8,229z"/>
		<path class="st3" d="M462,67c-3.4,0.2-6.9,0.4-10.3,0.5c-0.1,0.3-0.1,0.6-0.2,0.8c5.1,2.2,10.3,4.5,15.4,6.7
			c0.4,0.2,0.8,0.4,1.2,0.7l-0.1,0.3c0,0,0.1-0.3,0.1-0.3c0,1.1,0.8,1.3,1.7,1.3c0,0,0,0,0,0c0.2,1.1,0.1,2.4,0.6,3.3
			c2.8,4.7,3.7,9.7,3.5,15.1c-0.2,6.2-2.1,8-8.1,9.7c-4.7,1.4-9.6-0.5-14,1.8c-3.4-0.7-6.6-1.8-9.7-3.3c-1-0.5-1.8-0.7-2.6,0.3
			c-0.8,0.8-0.5,1.8-0.3,2.8c0.4,3.1,3.6,6.7,0.6,9.3c-3.4,2.8-6.7-1-10.1-1.9c-0.2,0-0.3-0.2-0.4-0.3
			c-10.9-5.4-20.7-12.7-31.8-17.9c-9.1-4.3-18.4-5.2-27.7-0.9c-5.5,2.5-9.9,6.5-14,10.9c-1.6,1.7-3.1,3.5-5.9,2.9
			c-5.9-9.7-7.3-20.4-5.5-31.2c4.7-29,21.7-48.6,48-60.9c20.1-9.4,41.4-11.5,63.1-9.4c9.1,0.9,18.2,3.2,26.4,7.7
			c0.5,0.9,1,1.8,2.3,1.7c0.3,0,0.5,0.1,0.7,0.3c-0.6,2.4,2,3.7,2,5.9c-1.9,0.3-2.8-2.2-4.8-1.9c-0.4-0.2-0.8-0.4-1.3-0.6
			c-0.1-1.8-1.6-1.5-2.7-1.8c-1.7-3.1-4.8-3.2-7.8-3.7c-2.9,0-5.1-3.2-8.4-1.8c-1-0.3-2.1-0.6-3.1-1c-0.3-0.2-0.6-0.1-0.8,0.1
			c-1.1-0.2-2.2-0.4-3.3-0.5c-0.1-0.3,0-0.8-0.2-0.9c-6.3-3.7-20.1-2-25.1,3.1c-2.6,2.6-2,5.4,1.8,6.9c6.9,2.8,14,4.8,21.6,3.9
			c0.7,0.1,1.4,0.2,2,0.2c8.3,1.2,16,4.2,23.7,7.7c4,1.8,8.7,1.9,12.4-1.8c2.2,2.4,3.2,5.4,4.6,8.2c4.5,8.9,1.5,16.2-8,19.9
			c-7.5,2.9-14.9,5.9-23.1,6C463.1,65.1,462.2,65.5,462,67z"/>
		<path class="st4" d="M152.1,420.4c6.8-0.4,13.6-0.4,20.4-1.2c2.8-0.3,3.7-1.2,3.5-4c-0.4-6.9-2.6-13.3-6.2-20.1
			c6,0.6,5.1-3,4.7-6.6c-0.8-6.7-3.3-12.8-6.4-18.7c-1.1-2.2-2.3-4.3,1.9-4.3c1,0,1.9-1.1,3.1-1.3c6.5-1.1,6.5-1.2,5.5-7.7
			c-2.6-16.4-12-27.3-27-33.8c-1.5-0.7-3.1-1.3-4.6-1.9c-11.2-4.2-11.9-5.2-12.3-18c6.9,0.5,13.4-2,20.2-2c23.7,0,47.4-0.2,71.2-0.3
			c8,0.2,15.9,0.7,23.8,1.9c3.5,0.5,4.5,1.8,4.4,4.9c-0.2,4.8-0.2,9.7-0.6,14.5c-1.9,28.2-3.9,56.4-5.6,84.6
			c-0.3,4.2-1.6,7.3-4.5,10.1c-8.8,8.4-19.6,12.4-31.4,14.3c-13.4,2.2-26.8,2.2-40.2-0.2c-7.5-1.3-14.8-3.2-21.2-7.7
			c-0.8-0.6-2-0.9-1.4-2.1C149.8,420,150.9,419.5,152.1,420.4z M198,373L198,373c-3.3-3.7-5.9-1.8-8.5,1.2c-2.6,3.1-1.8,6,1,8.2
			c2.9,2.3,6.6,2.3,8.8-0.8C201.2,378.9,202.6,375.2,198,373z M198,341c3.7-1.3,4.6-4.1,3.6-7.5c-1.1-3.7-3.5-6.4-7.8-6.5
			c-4.2-0.2-6.4,2.3-7.8,5.7c-1.6,4.1,0.1,7.5,3.5,9.4C192.1,343.6,195.6,344.7,198,341L198,341z M226.5,405.2
			c-0.2,0.1-0.3,0.2-0.3,0.4c-1.8,0.6-1.8,2.7-3.1,3.7c-2.3,1.9-4.9,3.4-6.7,5.9c-1.3,1.8-1.7,3.6,0,5.4c1.5,1.5,2.6,2.7,5.4,1.4
			c4.5-2,7.7-5.6,11.7-8c12.3-7.3,12.4-25.4,4.7-34.9c-2.4-2.9-6.7-2.8-7.9,0.7c-2.4,6.8-3.1,14-2.3,21.2c-0.1,0.6-0.2,1.2-0.3,1.7
			C226.6,403.1,226.1,403.9,226.5,405.2z M211.5,411.4c-1.1-2.2-2-4.5-5-4.2c-2.6,0.3-4.4,1.8-4.2,4.5c0.2,2.8,2.4,4,4.9,3.8
			C209.5,415.4,210.9,413.6,211.5,411.4z M241.7,333.1c2.7,0.2,4.1-1.2,4.3-3.6c0.2-2.7-1.4-4.3-4.1-4.4c-2.7-0.1-3.7,1.7-3.9,4.1
			C237.8,331.6,239,333.1,241.7,333.1z"/>
		<path class="st5" d="M105.6,333.3c-6.9-6.4-6.3-14.6-5.2-22.7c0.5-3.9,1.8-7.8,3.2-11.5c2.1-6,4.4-12.1,7-17.9
			c0.8-1.9-0.1-2.3-1.1-3.1c-9.5-8-11.2-18.1-7.6-29.3c4.3-13.5,13-23.4,26-29.3c4.1-1.8,8.2-3.2,10.5,2.6c0.3,0.8,1,1.8,2.5,1.9
			c-1.1-3-0.8-6-0.9-9c-0.4-7.4,3-12.4,9.1-15.9c6.6-3.8,13.9-5.4,21.4-6.3c13.5-1.6,26.9-1.6,40.2,1.1c6.6,1.3,13.9,5.3,20.6,11
			c-5.8,3.7-11.5,7.4-16.5,12.1c-7.5,7-13.4,15.1-17.3,24.7c-1.6,3.9-0.2,6.8,2,9.6c2.3,2.9,5.4,2.7,8.6,1.6
			c12.3-4.2,24.9-5.7,37.8-5.2c8.2,0.4,8.2,0.5,8.9,9.2c-1.1,0.1-2.2,0-3.1,1.2c-4.5,6.4-10.7,9-18.6,9.1c-5.2,0.1-8.7-2.3-12.5-5
			c-2.6-1.8-3.9-1.6-3.9,1.8c-0.1,4.4-2,8.2-5.4,10.7c-7,5.2-14.2,6.6-19.5-2.6c-1.1-1.9-1.6-4.2-3.6-5.7c-2.6,6.4-3.2,7.1-8.8,9.7
			c-1.7,0.8-3.8,0.9-5.7,1.5c-10.1,3-19.7,1-29.2-2.6c-4.1-1.6-7.1-4.4-10.4-8.5c-0.8,11.3-5.4,19.5-13.8,25.4c-1,0.7-1.9,1.8-1,3
			c2.3,3,2.3,6.8,2.9,10.2C124.8,318.7,120.5,330.2,105.6,333.3z M108,254c0,1.2,0.1,2.1,0,2.9c-1.2,5.8,2.7,8,6.9,9.7
			c2.5,1,4.3,0,3.7-3.2c-0.3-1.5-0.5-3-1.2-4.3c-3.5-7.1-0.6-13.1,3-18.9c1.5-2.3,2.7-4.9,0.6-6.6c-2.4-1.9-5-0.1-6.8,2.2
			C110,241.2,107.5,247.3,108,254z M154.9,215c1.7-0.3,4.1,0.8,5-1.3c2.6-5.6,7.5-6.4,12.9-6.9c4-0.4,7-5.4,4.6-7.1
			c-2.4-1.7-5.2-3.8-8.6-2.7c-5.6,2-11.5,3.6-15.9,8.1c-2.3,2.3-2.8,5.4-2.6,8.2C150.5,216,153.3,214.6,154.9,215z"/>
		<path class="st6" d="M357.2,363.9c-2.6-8.6-4.5-17.4-5.1-26.4c-0.2-3.8,0.7-7,3.4-10c8.9-9.9,12.8-22.4,17.2-34.6
			c4.5-12.5,8.6-25.2,17.3-35.7c0.7-0.9,1.3-1.9,1.8-3c3.8-7.1,2.6-10.3-4.7-13.5c-0.7-0.3-1.5-0.7-2.5-1.3
			c10.3-3.8,17.2-10.6,20.7-20.6c0.7-2,2.1-2.6,4-3.1c3.4-0.9,6.4-3,6.5-6.7c0.4-13.7,0.3-27.3-8.9-38.9c-8.9-11.3-28.9-15.7-41.7-9
			c-0.7,0.4-1.5,0.7-2.1,1.3c-4.4,4.5-9.4,8.1-14.7,11.4c-4.4,2.7-4.7,6.8-2.1,11.3c0.8,1.4,1.8,2.4,0.8,4.4
			c-3.5,7-5.7,14.5-6.7,23.2c-1.5-1.8-2.5-3-3.5-4.1c-6-6.7-12.8-11-22.4-8.9c-3.5,0.8-7.3,0.6-11.6-0.7c2.8-2.6,5-5.2,7.4-7.4
			c1.9-1.8,1.8-4.3,2.5-6c2.4-6.3,6.5-10.4,12.1-13.6c0.8-0.4,1.2-2,1.3-3.1c0.7-8.9,0.2-18-2.9-26.1c-4.2-11.2-13.3-17.6-25.5-18.8
			c-1.5-0.2-2.9-0.1-4.4-0.2c-0.3-2,1.4-2.2,2.3-2.9c12.4-9,26.2-15,41.1-18.6c3.1-0.8,5.1-0.6,6.6,2.9c1.4,3.3,3.7,6.2,5.7,9.3
			c1.8,2.7,3.9,3.4,6.6,1.1c1.9,0.6,3.6-0.5,5.3-0.8c11.8-2.2,23-1.7,31.6,8.1c3.7,4.2,7,8.8,10.6,13.1c2.7,3.3,5.1,7.7,9.7,8.1
			c5.4,0.5,6,4.2,7.1,8c4.8,16.9,5.9,34.3,5.2,51.8c-0.8,18.8-6,36.3-15.9,52.2c-16.8,27-31.3,55.1-43.3,84.5
			C362.7,348.4,361.3,356.6,357.2,363.9z"/>
		<path class="st3" d="M394.1,472.2c-2.1,5.5-5.7,9.9-9.7,14.1c-1.8,1.9-4.2,2.1-6.4,2.2c-22,0.7-43.9,1.4-65.8-0.9
			c-5.2-0.6-10.5-0.2-15.8-1.9c-9.5-3.2-17.3-13.9-16.7-24.1c0.1-1,0.6-2.1,0.3-2.9c-0.5-1.2,2.1-3.1-0.7-3.4
			c-2-0.2-2.8,1.6-3.1,3.3c-0.8,5.3,0.7,10.2,2.6,15c0.6,1.4,2.5,3.1,0.6,4.3c-1.3,0.8-3-0.7-4.3-1.9c-3.4-2.9-5-6.4-5.2-10.8
			c-0.8-14.9,2.9-29.1,6.6-43.2c3.6-13.6,8.3-26.9,12.9-40.2c2.1-6.2,6.3-8.8,11.5-10.9c0.7-0.3,1.3-0.9,3.2-2.2
			c-2.9,6.6-5.6,12-7.1,17.7c-0.9,3.2-1.9,6.3-2.8,9.5c-1.5,5.6-0.7,6.7,5.1,7.2c0.8,0.1,1.7,0.2,2.5,0.3c0.2,1.1,0.9,1.5,2,1.8
			c9.6,2.9,19,6.3,28.9,8.5c10.3,2.3,20.6,3.3,31,1.8c4.9-0.7,8.3-0.8,9.4,4.9c0.2,1,0.6,1.9,0.9,2.8c-15.7-0.1-31.4-0.3-47.1-0.4
			c-0.2-1.2-0.9-1.7-2.1-1.7c-6.9,0-13.9-0.1-20.8-0.1c-1.1,0-1.9,0.4-1.9,1.7c-0.2,1.6-0.4,3.1-1.2,4.7
			c-3.7,7.4-8.9,13.7-14.5,19.7c-1,1.1-3.1,1.9-2.7,4.7c8.5-5.1,14.1-12.1,17.8-20.5c2.8-6.5,4-7.5,10.8-5.9c1,0.2,1.9,0.6,2.9,0.7
			c17.8,1,35.5,2.2,53.3,2.7c5.9,0.2,10,0.9,11.6,7.5c0.7,3.1,3.2,5.7,4.9,8.5c-0.2,1.6,0.9,2.8,1.3,4.2
			C389,456.7,392.3,464.2,394.1,472.2z"/>
		<path class="st7" d="M463.1,589.1c-0.1,0.3-0.1,0.6,0,0.9c-1,0.4-1.7,1.1-1.9,2.1c-4.6,17.6-26,30.5-42,30
			c-15.5-0.5-30.3-4.1-44.8-9.4c-3.4-1.2-6.7-3.1-10.5-2.6c-4.1-6.5-5.3-13.8-5.7-21.3c-0.7-12-0.2-23.9,1.6-35.8
			c1.6-10.6,2.4-21.1-0.8-31.6c5.2-1.1,10-0.3,14.8-0.7c4,4.3,4.4,10,5.1,15.3c0.8,6,4.2,7.2,9.4,8.1c17.2,2.7,34,7.1,50.1,13.6
			c7.1,2.9,13.9,6.5,19.1,12.3C462.3,575.5,462.7,582.3,463.1,589.1z"/>
		<path class="st8" d="M357.2,363.9c4.1-7.3,5.5-15.6,8.7-23.2c12-29.4,26.5-57.5,43.3-84.5c9.9-15.9,15.1-33.5,15.9-52.2
			c0.7-17.5-0.4-34.8-5.2-51.8c-1.1-3.7-1.7-7.5-7.1-8c-4.6-0.4-6.9-4.8-9.7-8.1c-3.6-4.3-6.9-8.9-10.6-13.1
			c-8.6-9.8-19.8-10.3-31.6-8.1c-1.8,0.3-3.4,1.4-5.3,0.8c13-8.8,26.5-8.9,40.1-1.9c6.6,3.4,12.8,7.8,19.2,11.6
			c5.7,3.4,11.8,6.2,18.2,8c2.8,0.8,4.4,2.5,5.9,4.8c8.6,13.4,10.9,28.5,11.8,43.9c1.4,24.7-2.8,48.4-12.3,71.2
			c-1.2,3-2.3,4.3-5.7,2.9c-2.2-0.9-4.9-1.2-7.3-1.1c-8.6,0.1-14,7.1-12,15.5c1.3,5.5,4.4,10.3,7.1,16c-3.5-0.5-5.7-2.2-8.1-3.4
			c-10.9-5.5-19.6-0.1-19.2,12.1c0.2,7.4,2.6,14.4,5.6,21.1c1.9,4.2,1.9,7.5-1.9,11c-4.3,4.1-4.7,10.2-5.7,15.7
			c-0.4,2.4-1.3,4.3-2.7,6.3c-9.1,12.4-17.3,25.3-20.4,40.7c-1.1,5.8-4.8,8.7-10.8,10.2c-13.9,3.3-27.5,1-41.2-0.7
			c-3.6-0.4-7.2-1.4-10.9-1.5c-5.2-0.1-5.4-2.4-3.3-6.2c2.5-0.1,4.7,1.1,7.1,1.9c7.1,2.3,14.1,4.4,21.6,2c5.2,2,10.4,3.4,16,1.8
			c10.9-3.1,15.9-12.6,13-24.7C358.9,370,358,367,357.2,363.9z"/>
		<path class="st9" d="M374.1,423.2c-0.3-0.9-0.8-1.9-0.9-2.8c-1.1-5.7-4.6-5.6-9.4-4.9c-10.4,1.4-20.7,0.4-31-1.8
			c-9.9-2.2-19.2-5.7-28.9-8.5c-1.1-0.3-1.8-0.7-2-1.8c11.9,1.5,23.8,2.2,35.8,2c9.9-0.2,19.9,0.3,29.7-2.2
			c6.3-1.6,8.2-3.6,8.7-10.2c1-12.1,5.5-23.1,10.5-34c0.7-1.6,1.6-3.2,2.8-4.7c0.2,10.4,2.4,20.3,5.7,30
			c4.8,14.2,11.5,27.5,18.5,40.6c6.4,11.9,10.3,25,16.3,37.2c5.3,10.7,4.7,11.7-6.8,17.4c-10.4,5.1-21.6,6.9-32.9,7.9
			c-0.9,0.1-2,0.4-2.9-0.9c9.7-8.1,18.5-16.7,11.7-31c-1.3,5.7-1.3,11.8-5,16.8c-1.9-8-5.2-15.4-7.7-23.2c-0.5-1.4-1.5-2.6-1.3-4.2
			c3.6,1.2,4.2,6.3,8.6,6.4c0.2,0.8,0.3,1.7,1.5,1.5c0.2,0,0.6-0.4,0.6-0.6c0.1-1.2-0.9-1.1-1.6-1.3c-0.1-0.3,0-0.7-0.2-1
			c-6.5-7.6-13.3-15.1-16.2-25C377.2,422.7,375.4,423.6,374.1,423.2z"/>
		<path class="st10" d="M366.9,265.6c3.6-2,7.1-4,10.7-6.1c-9.7,3.1-19.2,6.4-29.2,8.2c-23.6,4.2-45.6,0-65.1-13.5
			c-12.3-8.5-25.8-11.9-40.2-13c-8.9-0.7-18-0.9-26.6,2.5c-0.6,0.2-1.3,0.3-2,0.4c-3.1,0.4-6.5,0.4-8.4-1.9c-1.6-2,0.8-4.6,1.8-6.8
			c1.3-3,2.7-6,5.2-8.4c1.5,0.6,2.5,2.5,4.4,1.6c7.1-3.3,14.8-4.8,22.2-7.3c4.4-1.5,8.7-3.7,13.8-2.4c1.4,0.4,3.3,0.6,4.6-0.9
			c2.5,0.3,4.9,1,7.4,0.9c8-0.2,14.2,3.7,20.3,8.2c11.4,8.3,21.8,17.9,33.3,26c12.7,9,26.3,8.4,40.3,5.2c6.3-1.4,12.6-3.2,18.8-4.9
			c5.2-1.4,6.9-3.7,7-8.4c3.8,1.3,4.9,4.1,2.1,6.8c-10.4,9.9-14,23.3-19.2,35.9c-3.1,7.5-5.6,15.3-8.9,22.7
			c-6.8,15.4-18.6,26.5-31.6,36.4c-8.9,6.7-18.6,12.2-27.9,18.2c-2.6,1.7-5.9,4.1-8.6,1.5c-2.2-2.2,0.8-5.1,1.7-7.7
			c4.8,0.8,9.2-0.9,13.1-3.3c10.3-6.3,20-13.3,28.6-21.9c6.8-6.8,12.6-14.1,16.2-23c4-10,7.8-20,11.4-30.1c1.6-4.5,4-8.7,4-13.7
			c0,0,0,0,0,0C366.2,266.5,366.6,266.1,366.9,265.6z"/>
		<path class="st11" d="M385,245c-0.1,4.7-1.8,6.9-7,8.4c-6.2,1.7-12.5,3.5-18.8,4.9c-14,3.2-27.6,3.8-40.3-5.2
			c-11.5-8.2-21.9-17.7-33.3-26c-6.1-4.4-12.3-8.4-20.3-8.2c-2.4,0.1-4.9-0.6-7.4-0.9c-1.3-2.3-5.6,0.8-6-3.2l0.3-0.1
			c0,0,0.3,0.1,0.3,0.1c2.9-0.5,6.3,2.1,8.5-1.7c2,0,4.1,0.4,5.9-0.2c3-1,7.3-1.5,6.8-5.8c-0.4-3.6-4-4.2-7.3-4.2
			c-3.8,0-7.6,0-11.4,0c0-0.6,0-1.1,0-1.7c10.6-2.7,21.3-3.6,32.1-2.5c3.7,0.4,7.1,1.8,10.4,3.2c6.3,2.6,12.8,3.2,19.5,2
			c10.6-1.9,15.9,0.8,19.9,10.9c6.4,15.9,18.6,23.7,34.9,26.1C376.5,241.6,381.1,242.1,385,245z"/>
		<path class="st7" d="M238.9,562.9c2-6,6.7-10,11.3-15c-5.3,1.1-8.2,4.3-11.4,7.1c-1.8-1.8-2-3.8-1.3-6.3c0.8-2.8,1-5.8,1.4-8.7
			c7.3-9.2,17.5-12.9,28.5-14.8c8.6-1.5,17.3-1.1,25.9-0.1c2.6,0.3,4.7,1.9,7.5,2.1c4.2,0.2,6.4-1.6,8.1-5c3.1-6.2,3.2-6.1,9.9-3.9
			c-1.6,2.8-1.3,6-0.7,8.8c1.3,6.1,0.8,12.2,0.7,18.3c-0.2,14.1-1.9,15.8-15.4,19.4c-6.7,1.8-13.7,2.5-20.5,3.1
			c-8.9,0.8-17.8,1.4-26.7,0.1C250.3,567.1,244.2,566.4,238.9,562.9z M270.7,528.1c-8.6,0.5-16.1,3-23.2,7.2c-1.8,1-3.3,2.6-2.3,4.9
			c1,2.3,3.1,3,5.4,2.4c7.4-2,15.1-3.2,21.9-6.8c2.4-1.3,7.1-1.5,6.4-4.4C278.2,527.8,273.4,528.9,270.7,528.1z"/>
		<path class="st12" d="M238.9,562.9c5.3,3.5,11.4,4.2,17.4,5.1c8.9,1.3,17.8,0.7,26.7-0.1c6.9-0.6,13.8-1.3,20.5-3.1
			c13.5-3.6,15.2-5.3,15.4-19.4c0.1-6.1,0.6-12.2-0.7-18.3c-0.6-2.8-0.9-6,0.7-8.8c4.3,0.2,8.6,0.5,12.9,0.6c1.7,0,2.2,0.9,2.4,2.4
			c1.7,13,2.8,26.1,2.5,39.3c-0.2,8.3-4.5,12.2-12,14c-9.9,2.5-19.5,6.1-29.6,7.8c-6,1-12,2.8-18.2,2.6c-8.9,0-17.9,0-26.8,0
			C234.7,583.1,232.3,578,238.9,562.9z"/>
		<path class="st8" d="M406.9,337c-4.5,16.2-1.1,31.2,7.8,44.9c7.9,12.3,14.2,25.5,23,37.2c8.1,10.9,16.6,21.2,31.3,23.4
			c4.5,0.6,8.5-0.4,12.6-1.9c1.9-0.7,3.5-2,5.6-1.6c-7.5,8.8-15.8,16.7-25.4,23c-6.9,4.6-9.3,4.4-15.3-1.4
			c-11.9-11.5-20.3-25.5-28-39.9c-9.6-18-17.4-36.7-20-57.1c-1-7.9-0.5-15.6,1.7-23.3c0.4-1.6,1.1-3.1,2-4.6
			c0.7-1.2,1.7-3.1,3.2-2.7C406.8,333.6,407.2,335.4,406.9,337z"/>
		<path class="st13" d="M105.6,333.3c14.9-3,19.2-14.5,16.8-28.1c-0.6-3.4-0.5-7.2-2.9-10.2c-0.9-1.2,0.1-2.3,1-3
			c8.4-6,13.1-14.2,13.8-25.4c3.3,4.1,6.3,7,10.4,8.5c9.5,3.6,19.1,5.6,29.2,2.6c1.9-0.6,3.9-0.7,5.7-1.5c5.6-2.6,6.2-3.3,8.8-9.7
			c2,1.5,2.5,3.8,3.6,5.7c5.2,9.2,12.5,7.8,19.5,2.6c3.4-2.5,5.4-6.3,5.4-10.7c0-3.4,1.3-3.7,3.9-1.8c3.7,2.6,7.2,5,12.5,5
			c7.9-0.1,14.1-2.7,18.6-9.1c0.8-1.2,1.9-1.1,3.1-1.2c1.4,4.9,2.6,9.9,4.1,14.8c0.7,2.2-0.5,3-1.8,4.1c-11.2,9.3-22.5,9.7-35.5,0.6
			c2.7,4,2.6,6.8-0.5,9.4c-2.7,2.2-5.5,3.8-8.9,4.1c-8.4,0.9-15.6-2.2-22.5-6.5c-1.7-1.1-1.6-2.2-0.9-3.7c0.8-1.8,1.3-3.8,0.6-6.7
			c-4.7,11.5-13.3,16.7-24.6,17.8c-11.8,1.2-20.1-4.3-25.4-14.5c-0.6,0.2-1.2,0.4-1.2,0.4c1.4,8.4-1.7,15.7-6.1,22.5
			c-1.4,2.1-1.3,4.2-0.9,6.7c1.5,9.4,0,18.3-5.8,26C119.9,339.5,112.6,339.9,105.6,333.3z"/>
		<path class="st6" d="M414.7,489.4c-20.9,27.3-49.8,30.4-80.9,27.1c-11.6-1.3-22.9-4.3-33.1-10.3c-6.7-3.9-12.5-8.8-16.3-15.7
			c0.3-0.2,0.6-0.5,0.9-0.7c25.3,9.2,51.4,6.8,77.4,5.7c16.4-0.7,32.7-2.7,48.8-6.4C412.5,488.8,413.7,488.2,414.7,489.4
			L414.7,489.4z"/>
		<path class="st12" d="M463.1,589.1c-0.3-6.8-0.8-13.6-5.7-19c-5.2-5.8-12-9.5-19.1-12.3c-16.2-6.5-32.9-10.9-50.1-13.6
			c-5.2-0.8-8.5-2-9.4-8.1c-0.7-5.3-1.1-11-5.1-15.3c2.6-3,6.6-2.3,9.9-3.3c9.2-2.9,9.2-2.7,11.7,6.5c1.1,3.8,3.7,8,2.8,11.4
			c-0.8,3.5-7,1.5-10.3,5c2.6,0.1,4.7,0.2,6.8,0.3c14.3,1.1,28.2,3.4,42,7.7c9.3,2.9,18.7,5.1,26.7,10.7
			c13.9,9.8,22.7,23.3,26.1,39.9c2.1,10.1-1,15.6-10.7,20.8c-0.9-4.4-1.7-8.7-2.7-12.9c-1.4-5.6-3.7-10.7-7.6-15
			C467,590.4,465.7,588.5,463.1,589.1z"/>
		<path class="st6" d="M152.1,420.4c-1.2-1-2.3-0.5-2.9,0.7c-0.6,1.2,0.6,1.6,1.4,2.1c6.4,4.5,13.7,6.4,21.2,7.7
			c13.4,2.3,26.8,2.3,40.2,0.2c11.8-1.9,22.6-5.9,31.4-14.3c2.9-2.7,4.3-5.9,4.5-10.1c1.7-28.2,3.7-56.4,5.6-84.6
			c0.3-4.8,0.3-9.7,0.6-14.5c0.2-3.2-0.9-4.4-4.4-4.9c-7.9-1.2-15.8-1.6-23.8-1.9c-0.9-2.9-3.3-1.7-5.1-1.7
			c-18.1-0.1-36.2-0.1-54.3-0.2c7.2-1.8,13.1-5.8,17.5-11.6c1.9-2.5,3-1.9,5-0.3c6.8,5.2,14.7,7.5,23.2,8.2c6.6,0.6,11.3-2,14.6-7.5
			c1.1-1.9,1.8-2.7,4.5-1.9c6.3,1.9,12.5,0.6,18.5-1.8c3.4-1.3,6.6-2.9,10.5-4.7c-0.6,9.8-1.2,19.3-1.8,28.8
			c-2.2,31.9-4.8,63.8-6.4,95.7c-0.5,10.2-4.9,16.9-12.7,22.3c-10.2,7-21.8,9.6-33.9,10.3c-16.4,1-32.6-0.1-48.3-5.4
			c-5.9-2-11.5-4.8-15.6-10.9C145.6,420.1,148.9,420.3,152.1,420.4z"/>
		<path class="st6" d="M365.9,235.4c-16.5-3.7-23.1-14.6-19.6-32.5c0.4-2.3,1.1-4.5,1.7-6.7c3.5-11.5,10.8-16.9,23-17.2
			c0.2,2.6,2.6,2.2,4.1,2.9c6.1,2.9,11.6,6.9,12.5,13.8c1.8,13.4-0.8,25.6-12.2,34.7C372.4,232.7,368.4,232.5,365.9,235.4z"/>
		<path class="st6" d="M305.9,153c9.4,11.2,10.8,19.1,4.3,29.9c0.6-3-0.7-4.7-1.2-6.7c-0.9-4.7-3.1-6.1-7-4
			c-5.2,2.8-7.1,7.6-7.3,13.1c-0.2,6.5,1.2,8.1,7.8,8.8c-2.6,3-5.4,3.4-9.3,2.1c-7.1-2.5-14.8-1.9-22.2-2.6
			c-0.8-1.6-1.3-3.4-2.3-4.9c-4.2-6.4-5.4-13.5-4.8-20.9c1.2-15.4,12-20.7,25.8-20.4C295.7,147.5,300.4,151.5,305.9,153z"/>
		<path class="st8" d="M582.8,229c-7.1-0.8-14.1-1.8-21.2-2.2c-32.7-1.8-50,18.7-58.5,45.9c-2.4,7.7-3,15.6-1.4,23.6
			c0.2,0.8-0.3,1.2-0.8,1.7c-5-6-10.4-11.6-16.9-16c-1.4-0.9-2-1.8-1.4-3.7c5.8-18.3,13.7-35.4,29.1-47.8
			c20.6-16.5,47.6-15.1,68.6-4.4C581.5,226.8,582.6,227.5,582.8,229z"/>
		<path class="st6" d="M84,397c6.2,4.8,12.3,9.5,20.5,13.1c-7.2,2.4-13.5,1.5-19.8,0.7c-12.8-1.5-20.2-9-24-20.8
			c-3.6-10.9-4.9-22.1-5.1-33.4c-0.4-18.4,0.9-36.6,6.2-54.4C66,288,73,283.7,87.5,285.8c2.3,0.3,4.6,0.7,6.9,1.3
			c7.5,1.8,8.7,4.5,5.6,12c-3.2,0.4-6.3-0.7-9.3-1.3c-12.4-2.4-18.3,1.5-21.7,13.5c-6,21.2-6.5,42.9-5.8,64.7
			C63.5,388.1,71.8,396.2,84,397z"/>
		<path class="st11" d="M365.9,266.9c0.1,5-2.4,9.2-4,13.7c-3.6,10.1-7.4,20.1-11.4,30.1c-3.6,8.9-9.4,16.2-16.2,23
			c-8.6,8.6-18.3,15.6-28.6,21.9c-3.9,2.4-8.3,4.1-13.1,3.3c3.1-25.4,1.4-50.9,0.9-76.4c-0.1-3.8-0.5-7.7-0.4-11.5
			c0-1.4-1.6-4.3,1.4-4.1c2.5,0.2,6.4-0.2,6.6,4.3c0.1,2.2,0.2,4.3,0.2,6.5c0.4,17.8,0.9,35.6-0.3,53.5c-0.1,1.8-0.2,3.7-0.5,5.5
			c-1.1,6.8,0.2,8.3,7.1,7.4c8.7-1.1,15.6-5.5,20.3-13c10.8-17.4,19.7-35.9,30.2-53.4C360.4,273.9,362.3,269.8,365.9,266.9z
			 M295.2,337.5c0.2,0.1,0.3,0.3,0.5,0.4c0-10.6,0-21.2,0-31.8c-0.2,0-0.3,0-0.5,0C295.2,316.6,295.2,327.1,295.2,337.5z"/>
		<path class="st9" d="M350.1,109c2.7,0.6,4.3-1.2,5.9-2.9c4.1-4.4,8.5-8.4,14-10.9c9.3-4.3,18.5-3.4,27.7,0.9
			c11,5.2,20.9,12.4,31.8,17.9c0.1,0.1,0.3,0.2,0.4,0.3c3.4,0.9,6.7,4.7,10.1,1.9c3-2.6-0.2-6.2-0.6-9.3c-0.1-1-0.5-1.9,0.3-2.8
			c4,3,7.6,6.3,10.6,10.2c2.1,2.7,3.7,5.7,2.3,9.1c-1.6,3.9-5.4,5.2-9.2,5.6c-10.5,1.3-19-4.1-27.4-9.2c-7.3-4.3-14-9.7-22.4-11.8
			c-9.1-2.3-18.4-2.1-27.5-0.2c-3.9,0.8-7.8,2.3-11.4,4.3C351.5,114,351,110.9,350.1,109z"/>
		<path class="st12" d="M363.8,610.1c3.8-0.5,7.1,1.4,10.5,2.6c14.5,5.2,29.3,8.9,44.8,9.4c16,0.5,37.4-12.4,42-30
			c0.3-1,0.9-1.7,1.9-2.1c6.7,9,9.6,19.4,10.8,30.4c0.2,1.9-0.6,2.8-2.3,3.3c-7.7,2.1-15,5.8-23.3,5.3c-10.2,0-20.4,0-30.5,0
			c-16.5-0.8-32.2-4.8-47-12.1C367.7,615.4,365.3,613.2,363.8,610.1z"/>
		<path class="st6" d="M88.2,342.9c17,14,36.9,20.7,58.6,21.8c10.2,0.5,16,5.9,20.5,13.9c-1.6,3.2-4.6,3.3-7.6,3.5
			c-13,0.6-25.7-1.2-38.4-3.3c-13.9-2.3-24.9-8.9-30.3-22.6C89.2,352,86.4,347.9,88.2,342.9z"/>
		<path class="st10" d="M337.1,394c-8.1-2.9-9.2-4.4-13.9-19.5c-1.8,2.5-2,5-2.1,7.6c0,1,1.2,2.4-0.6,3c-1.2,0.4-2.3-0.1-3.2-0.9
			c-2.1-1.7-3.1-3.8-3.3-6.4c-0.7-9.3,4-16.5,10-22.4c5.6-5.5,12.6-9.6,19-14.4c-0.3,2.1,0.4,4,1.1,5.8c4.2,11.2,5.7,22.7,5,34.6
			C348.6,389.7,345.2,393.6,337.1,394z"/>
		<path class="st3" d="M309.8,336.3c-2.6,0.5-4.6-0.3-4.2-3.2c2.7-19.3,0.4-38.6,0.2-57.9c0-4.3,1.3-5.3,5-4.1
			c3.7,6.3,10,8.4,16.6,9.7c2.4,0.5,5.6-0.6,7.2,0.6c2.2,1.7-0.5,4.4-0.9,6.7c-2.4,12.7-7,24.7-13.6,36c-2.3,4-6.6,6.4-8,11
			c0,0-0.2,0.1-0.2,0.1C311,334.8,310.2,335.2,309.8,336.3z"/>
		<path class="st6" d="M288.5,341c-8.5-30.3-22.2-59-27.9-90.3c2.7,0,4.5,1.2,6.2,2.4c5.4,3.9,11.2,7.1,17.4,9.7
			c1.9,0.8,3,1.6,3.1,3.8C288.6,291.4,289.4,316.1,288.5,341z"/>
		<path class="st6" d="M259.1,382c1.1-15.9,2.3-31.7,3.4-47.6c0.3-4.1,0.7-8.3,0.9-12.4c0.1-2.4,0.8-3.3,3.6-3.2
			c8.3,0.4,8.3,0.2,10.9,7.9c1.9,5.7,3.8,11.5,5.7,17.3c-1.6,0.6-1.6,2-1.5,3.3c0.3,5.7-0.8,11.3-2.1,16.7
			C277,375.8,272.4,383.1,259.1,382z"/>
		<path class="st8" d="M88.2,342.9c-1.8,5,1,9.2,2.7,13.4c5.4,13.6,16.4,20.3,30.3,22.6c12.7,2.1,25.5,3.8,38.4,3.3
			c3.1-0.1,6-0.2,7.6-3.5c0.5,1.2,1.3,2.3,1.5,3.6c1.6,7,0.6,8.3-6.6,9c-19.4,1.8-38.2-0.1-56.1-8.2c-7.2-3.2-13.7-7.5-19.2-13.2
			c-7.6-7.7-8.8-18.9-3.1-28C86.3,337.8,86.8,342.4,88.2,342.9z"/>
		<path class="st8" d="M172.2,349.9c1.3,1.9,1.1,4.1,1.2,6.2c0.1,2.3-0.8,3.5-3.4,3.8c-20.5,2.1-40.5,0.6-59.5-8.1
			c-5.8-2.6-11.1-6-15.9-10.1c-11.5-9.9-12.8-22.1-3.7-34.8c1,1.6,0.8,3.4,1.1,5.1c0.5,3.3,0,7,2.4,9.9c1.8,14.7,8.6,22,21.5,23.1
			c7,3.1,14.7,3.5,22.1,4.5C149.5,351.1,160.9,352.2,172.2,349.9z"/>
		<path class="st9" d="M312.2,335.2c1.4-4.6,5.6-7,8-11c6.6-11.3,11.2-23.2,13.6-36c0.4-2.2,3.1-5,0.9-6.7c-1.6-1.2-4.8-0.1-7.2-0.6
			c-6.6-1.4-12.9-3.4-16.6-9.7c8.6,2,17.3,1.9,26.1,1.8c6-0.1,11.7-1.5,17.4-3.4c1.4-0.5,2.8-0.9,4.4,0
			c-5.1,9.6-10.2,19.2-15.4,28.7c-4.7,8.6-9.2,17.2-14.3,25.5C325.3,330,320.3,335,312.2,335.2z"/>
		<path class="st8" d="M423.2,296.9c-0.9,0.3-1.8,0.8-2.8,1c-5.8,1.1-8.3,4.9-7,10.8c1.8,8.4,6.4,15.6,9.7,23.3
			c6.8,15.7,12.4,31.8,17.4,48.1c0.5,1.7,0.9,3.4-0.2,6.2c-0.9-4.3-4.6-5.4-6.3-8.3c-6.4-11.8-13.4-23.3-18.4-35.8
			c-4-10.1-9.5-19.8-11.1-30.8c-0.4-2.8-0.4-5.6,0.3-8.4C407.1,294.8,415.1,292.2,423.2,296.9z"/>
		<path class="st8" d="M169.2,404.7c1.1,1.2,0.9,2.8,1.1,4.3c0.6,3.8-0.2,5.9-4.9,6.3c-19.4,1.6-38.3,0.6-56.4-7.3
			c-6.9-3-13-7.3-18.7-12.3c-6.7-5.8-9.1-12.8-6.9-21.9c3.7,2,6.8,4.4,9.6,7.3c-0.2,1.8,0.5,3.3,1.4,4.7
			c5.6,8.2,12.4,14.9,22.4,17.1c13.9,3.1,28.1,4.7,42.3,5.1C162.7,408,166.5,407.8,169.2,404.7z"/>
		<path class="st8" d="M84,397c-12.3-0.8-20.5-8.9-21-21.1c-0.7-21.8-0.2-43.5,5.8-64.7c3.4-12,9.3-15.9,21.7-13.5
			c3.1,0.6,6.1,1.7,9.3,1.3c-0.3,3.5-2.4,4.5-5.5,3.6c-5.9-1.7-10.8,1.6-16.1,3c-2.5,0.7-3.4,3-3.9,5.4c-4.1,22.4-5.4,44.9-2.3,67.5
			C73.3,386.6,79.3,391.3,84,397z"/>
		<path class="st6" d="M172.2,349.9c-11.4,2.3-22.7,1.2-34.1-0.4c-7.5-1-15.1-1.3-22.1-4.5c9.1-1.8,14.6-7.9,17.5-16
			c1.6-4.4,3.2-4.1,6.6-2.6c6.9,3.1,14.4,5.2,20.7,9.6C165.9,339.6,170.7,343.5,172.2,349.9z"/>
		<path class="st6" d="M169.2,404.7c-2.7,3.1-6.5,3.3-10.1,3.2c-14.2-0.5-28.4-2-42.3-5.1c-10-2.2-16.8-8.9-22.4-17.1
			c-0.9-1.4-1.6-2.9-1.4-4.7c8.4,3.8,16.6,8.2,25.6,10.6c12.7,3.3,25.5,4.7,38.6,4.4C165.2,395.8,166.4,396.8,169.2,404.7z"/>
		<path class="st8" d="M259.1,382c13.3,1.1,17.8-6.2,20.8-18.1c1.3-5.4,2.4-11,2.1-16.7c-0.1-1.3-0.1-2.7,1.5-3.3
			c4.2,8.6,6.7,17.2,1.7,26.4c-0.7,1.3-1.4,4.1,0.5,4.3c5,0.7,2,3.1,1.3,4.9c-2.5,6.1-5.2,12.2-7.7,18.4c-2.8,6.8-2.8,6.8-10.4,5.6
			c-3.2-2.8-7.2-2.7-11-3.5C258.3,394,258.7,388,259.1,382z"/>
		<path class="st8" d="M436.1,263.3c-6.1,6.9-3.7,13.2,0.4,20.2c8.8,15.2,18.3,30.1,24.1,46.9c1.4,4.2,3.1,8.4,2,13.6
			c-2.1-2.8-4.4-4.8-4.6-8.1c-0.2-0.7,0.4-1.9-1.1-1.9c0,0,0.1,0.1,0.1,0.1c0-0.7,0.3-1.8-1.1-1.1c0,0,0,0.1,0,0.1
			c1.4-1.3,0-2.4-0.5-3.3c-7.3-13.9-16.1-26.6-27.7-37.6c-6.2-5.9-8.4-14.4-6.7-23C422.3,263,428.4,260.9,436.1,263.3z"/>
		<path class="st8" d="M365.9,235.4c2.5-2.9,6.5-2.6,9.5-5c11.4-9.1,14-21.3,12.2-34.7c-0.9-6.9-6.4-10.9-12.5-13.8
			c-1.5-0.7-3.9-0.3-4.1-2.9c10.3-1.5,18,3.1,24.4,10.6c4.7,5.6,7.1,12.3,8.5,19.5c0.7,3.7-0.3,7-2.6,9.9c-1.3-0.3-1.2-1.1-1.2-1.7
			c0-2.6-0.1-5.5-3.1-6.1c-3.2-0.6-5.2,1.8-6.5,4.4c-0.7,1.2-1.9,2.2,1.1,3.4c4.2,1.7,1.8,5.1-0.2,7.7c1.5,1.2,3.2,0.5,5.1,0.9
			C387.6,236.2,377.7,239.3,365.9,235.4z"/>
		<path class="st9" d="M487,23c0-2.2-2.6-3.5-2-5.9c12.2,5.4,20.7,14.4,24.8,27.2c1.7,5.3-1.6,11.3-7.2,14.6
			c-6.2,3.5-12.8,5.4-20,6.5c-6.9,1.1-13.7,1.9-20.6,1.6c0.2-1.4,1.1-1.9,2.4-1.9c8.2-0.2,15.7-3.1,23.1-6c9.5-3.8,12.5-11,8-19.9
			c-1.4-2.8-2.4-5.8-4.6-8.2C489.6,28.3,488.3,25.6,487,23z"/>
		<path class="st8" d="M305.9,153c-5.5-1.5-10.2-5.5-16.2-5.6c-13.7-0.3-24.5,5-25.8,20.4c-0.6,7.4,0.6,14.5,4.8,20.9
			c1,1.5,1.5,3.3,2.3,4.9c-10.5,0.9-13.1-0.7-15.2-11.1c-2.3-11.3-0.3-22,6-31.7c0,0-0.1,0.1-0.1,0.1c9.3-6.5,19.3-10.4,30.9-6.8
			C297.9,145.7,302.7,148.2,305.9,153z"/>
		<path class="st4" d="M375.9,176.1c-4.2,0-8.3,0-12.4,1.2c-2.9,0.8-5.5,2.4-8,3.9c-1.5,0.9-2,4.8-4.4,2.6c-1.9-1.7-1.7-5.1-0.3-7.5
			c1.9-3.3,4.9-5.3,8.8-5.5c1.4-0.1,3.1,0.3,1.3-2.2c-1.2-1.7,1.3-2.2,2.4-2.7c9.1-4.5,18.4-4.8,27.9-1.1c1.4,3.1,4.8,4.6,6.4,7.5
			c1.3,2.4,3.6,5.5,1.8,7.7c-1.8,2.2-4.3-1.1-6.5-1.7c-1.7-0.5-3.4-1.4-5.1-1.9C383.9,175.2,379.9,173.7,375.9,176.1z"/>
		<path class="st4" d="M261.7,150.9c0,0,0.1-0.1,0.1-0.1c-3.4-2.7-4-6.9-1.3-10.2c3.1-3.9,7.7-6.2,11.4-9.5c6.6-5.8,15.6-6,24.2-4
			c4.5,2.5,8.5,5.7,12,9.4c2.5,2.6,4.1,5.6,4.1,9.3l-0.2,0.2c-3.6-1.6-7.3-3.1-10.9-4.7c-7.5-3.3-15.4-5-23.5-3.3
			c-4.9,1.1-9.9,2.8-12.4,7.9C264,147.8,261.8,148.6,261.7,150.9z"/>
		<path class="st12" d="M265.1,146.1c2.5-5.2,7.4-6.9,12.4-7.9c8.1-1.8,16,0,23.5,3.3c3.6,1.6,7.3,3.1,10.9,4.7
			c0.2,0.1,0.4,0.2,0.5,0.3c-0.1-0.2-0.2-0.4-0.3-0.5c0-3.7-1.6-6.7-4.1-9.3c-3.5-3.7-7.5-7-12-9.4c13.3,1.4,25.7,13,25.2,25.8
			c-0.2,4.3,1.8,7.4,1.7,11.3c-0.1,2.3,0.4,4.7-1.4,6.6c-1,1.1-2.4,2.1-3.9,1.7c-1.1-0.3-1.1-1.9-1.3-3.1
			C312.7,143.8,283.5,133.1,265.1,146.1z"/>
		<path class="st12" d="M375.9,176.1c4-2.4,7.9-1,11.8,0.3c1.7,0.6,3.4,1.4,5.1,1.9c2.2,0.7,4.6,4,6.5,1.7c1.8-2.2-0.4-5.3-1.8-7.7
			c-1.6-2.9-5-4.4-6.4-7.5c10.9,2,21.3,15.1,20.9,26.1c-0.1,1.6-0.6,2.1-2,2c-0.2-0.2-0.3-0.5-0.5-0.7c-0.1,0.2-0.2,0.4-0.3,0.6
			c0.3,0,0.5,0.1,0.8,0.1c0.4,4.1,2.9,7.7,2.3,12c-0.3,2.1-0.7,3.9-2.7,5c-2.1,1.2-3.6,1.6-4-1.7
			C403.7,190.2,393.4,179.8,375.9,176.1z"/>
		<path class="st14" d="M252,214.8c0.4,4,4.7,0.9,6,3.2c-1.3,1.5-3.2,1.3-4.6,0.9c-5-1.3-9.4,0.9-13.8,2.4c-7.3,2.6-15,4.1-22.2,7.3
			c-1.9,0.9-2.9-1-4.4-1.6c8.2-12.5,20.6-19.1,34.3-23.9c2.5-0.9,5.1-1.3,7.6-1.9c0,0.6,0,1.1,0,1.7c-1,0.6-2,1.2-3,1.8
			c-0.3,0.1-0.6,0.3-0.9,0.4c-5.9-0.7-9.8,3-13.4,6.6c-1.5,1.5-3.5,4-2,6.1c1.6,2.2,4.6,1.2,6.9,0.5c1.7-0.5,3.3-1.4,4.8-2.4
			C248.7,215,250.3,214.8,252,214.8z"/>
		<path class="st9" d="M452,107c4.4-2.3,9.3-0.4,14-1.8c6.1-1.8,7.9-3.6,8.1-9.7c0.2-5.4-0.7-10.4-3.5-15.1
			c-0.5-0.9-0.4-2.2-0.6-3.3c12.5,3.7,18.3,16.1,11.7,25c-4.5,6-10.9,8.3-17.9,7.5C459.9,109.2,455.3,110.6,452,107z"/>
		<path class="st5" d="M166.7,298.9c18.1,0,36.2,0.1,54.3,0.2c1.8,0,4.2-1.1,5.1,1.7c-23.7,0.1-47.4,0.3-71.2,0.3
			c-6.8,0-13.4,2.5-20.2,2c4-4.6,6.1-10,6.7-17C148.9,293.2,156.5,298.8,166.7,298.9z"/>
		<path class="st15" d="M337.1,394c8-0.4,11.5-4.3,11.9-12.7c0.7-11.9-0.8-23.4-5-34.6c-0.7-1.9-1.4-3.7-1.1-5.8
			c0.9-1.8,2.5-2.9,4.8-4.4c1.6,12.2,5.6,23.2,7.9,34.6c2.3,11.3-2.1,19.6-11,22.9C342.2,394.9,339.6,395.6,337.1,394z"/>
		<path class="st6" d="M330.7,395.9c-7.5,2.4-14.5,0.3-21.6-2c-2.3-0.7-4.5-2-7.1-1.9c0.4-4.9,2.5-9.2,4-14.2
			c1.6,9.3,7.4,11.6,15.7,11.7C325.3,389.5,327.6,393.8,330.7,395.9z"/>
		<path class="st12" d="M238.9,540c-0.4,2.9-0.6,5.9-1.4,8.7c-0.7,2.5-0.4,4.5,1.3,6.3c-3.8,5.5-6.5,11.4-7.2,18.2
			C224.9,567,228.3,551.3,238.9,540z"/>
		<path class="st8" d="M302.6,194.2c-6.6-0.7-8-2.3-7.8-8.8c0.2-5.6,2-10.4,7.3-13.1c3.9-2.1,6.1-0.7,7,4c-4-2.3-8.6-0.5-9.5,3.8
			c-0.2,0.8-0.5,1.6,0.6,2.1c5.2,2.3,2.8,5.3,0.7,8.2C304.3,192,304.3,192,302.6,194.2z"/>
		<path class="st5" d="M73.7,351c0-19.6,2.4-34.1,6.2-38.2c1.3,1.5-0.1,2.8-0.4,4c-1.3,4.7-2.3,9.7-0.2,14.1c1.8,3.6,0.7,6-0.8,9
			C76.8,343.2,75.6,346.6,73.7,351z"/>
		<path class="st6" d="M266.5,294.2c2.1,5.9,4.2,11.8,6.5,18.1c-2.5-0.2-4.4-0.3-6.4-0.5c-1.5-0.1-2.5-0.7-2.3-2.5
			c0.5-5,0.8-10,1.2-15C265.8,294.3,266.2,294.3,266.5,294.2z"/>
		<path class="st6" d="M94.5,321.9c-2.5-2.9-1.9-6.5-2.4-9.9c-0.3-1.7-0.1-3.6-1.1-5.1c1.6-2.5,4-1.4,5.6-0.6
			c1.3,0.7-0.3,2.6-0.5,3.9C95.6,314.2,95,318,94.5,321.9z"/>
		<path class="st4" d="M417.8,629c10.2,0,20.4,0,30.5,0C438.1,630.8,428,630.6,417.8,629z"/>
		<path class="st4" d="M250.1,585c8.9,0,17.9,0,26.8,0C268,586.4,259.1,586.9,250.1,585z"/>
		<path class="st8" d="M75.4,372.4c-0.2-1.6-0.3-3.2-0.8-4.7c-0.4-1.3-1.1-2.4-0.1-3.6c0.2-0.2,1.1-0.1,1.3,0.1
			c0.8,1.2,2.3,2.2,2,3.8c-0.2,1.5-1,3-1.5,4.5C76,372.5,75.7,372.5,75.4,372.4z"/>
		<path class="st5" d="M257.9,400c3.8,0.8,7.8,0.8,11,3.5C265.2,402.5,260.6,404.1,257.9,400z"/>
		<path class="st9" d="M309.8,336.3c0.4-1.1,1.1-1.5,2.2-1.1C311.9,336.7,311,336.9,309.8,336.3z"/>
		<path class="st9" d="M484.2,16.8c-1.2,0-1.8-0.8-2.3-1.7C483.3,15,484,15.6,484.2,16.8z"/>
		<path class="st9" d="M469.9,77.1c-0.9,0-1.6-0.2-1.7-1.3C468.8,76.2,469.4,76.6,469.9,77.1z"/>
		<path class="st11" d="M366.9,265.6c-0.3,0.4-0.6,0.9-1,1.3C366.3,266.5,366.6,266.1,366.9,265.6z"/>
		<path class="st6" d="M284.3,490.5c-0.1-0.4-0.2-0.8-0.2-1.2c0.4,0.2,0.8,0.3,1.1,0.5C284.9,490,284.6,490.3,284.3,490.5z"/>
		<path class="st6" d="M414.6,489.5c-0.2-0.2-0.4-0.3-0.6-0.5c0.4-0.2,0.5-0.2,0.3,0.3C414.3,489.3,414.5,489.4,414.6,489.5
			C414.7,489.4,414.6,489.5,414.6,489.5z"/>
		<path class="st9" d="M468.2,75.7c-0.4-0.2-0.8-0.4-1.2-0.7C467.4,75.3,467.8,75.5,468.2,75.7z"/>
		<path class="st1" d="M456.9,334c1.5,0,0.9,1.1,1.1,1.9C456.9,335.6,456.5,335,456.9,334z"/>
		<path class="st1" d="M455.9,333c1.4-0.7,1.1,0.3,1.1,1.1C455.9,334.5,456,333.7,455.9,333z"/>
		<path class="st5" d="M454.8,11.9c1.1,0.2,2.2,0.4,3.3,0.5c0.4,0.5,0.6,0.4,0.8-0.1c1,0.3,2.1,0.6,3.1,1c2.5,2.5,5.4,3.9,9,3.5
			c0,0,0.2,0.2,0.2,0.2c0.5,2.8,1.6,5.9-3.4,5c-6.2-1.1-12.4-1.8-18.5-3.2c-2.8-0.7-6.9-1.8-4.1-6.6c0.5-0.1,1.1-0.1,1.6-0.2
			c1.4,1.3,2.8,1.6,4.2,0C452.2,12,453.5,11.9,454.8,11.9z"/>
		<path class="st15" d="M487,23c1.3,2.6,2.6,5.3,4,7.9c-3.7,3.7-8.4,3.6-12.4,1.8c-7.7-3.4-15.3-6.4-23.7-7.7c0-0.5,0-1.1,0.1-1.6
			c1.3,0,2.7,0,4,0.1c0.2,1,0.8,1.5,1.7,1.5c5.1-0.1,9.7,2.2,14.4,3.4c2.8,0.7,5.3,1.4,7.8-1c2.7-2.7-1.2-4-0.8-6.2
			C484.2,20.8,485,23.3,487,23z"/>
		<path class="st15" d="M454.8,11.9c-1.3,0.1-2.6,0.1-3.8,0.2c-1.2-1.8-3-0.8-4.5-0.9c-0.3,0-0.6,0-0.9,0c-1.3,0.1-2.6,0.2-3.9,0.2
			c-2.6-0.6-4.8,0.7-6.9,1.8c-1.3,0.7-3.5,1.3-3.3,3.2c0.2,1.6,1.7,3,3.3,3.4c5.2,1.3,10.1,4.2,15.7,3.1c0.9,0.1,1.8,0.3,2.6,0.4
			c-0.1,0.5-0.1,1-0.2,1.6c-7.6,1-14.7-1.1-21.6-3.9c-3.8-1.6-4.3-4.4-1.8-6.9c5-5,18.8-6.7,25.1-3.1
			C454.8,11,454.7,11.5,454.8,11.9z"/>
		<path class="st4" d="M482.2,21.1c-0.5,2.1,3.5,3.5,0.8,6.2c-2.5,2.5-5,1.7-7.8,1c-4.8-1.2-9.3-3.5-14.4-3.4
			c-0.9,0-1.5-0.5-1.7-1.5c4.8-1.5,9.1,1.3,13.6,2c4.4,0.7,6.2-0.5,6.9-4.5c0.5-0.2,1-0.3,1.4-0.5C481.3,20.7,481.8,20.9,482.2,21.1
			z"/>
		<path class="st13" d="M471,16.8c-3.6,0.4-6.5-1-9-3.5c3.2-1.4,5.4,1.9,8.4,1.8C470.6,15.6,470.8,16.2,471,16.8z"/>
		<path class="st15" d="M471,16.8c-0.2-0.6-0.4-1.2-0.6-1.7c3,0.5,6.1,0.6,7.8,3.7c0,0-0.2,0.3-0.2,0.3c-0.4,0-0.8,0-1.2,0
			c-1.9-0.6-3.2-2.7-5.5-2.1C471.2,16.9,471,16.8,471,16.8z"/>
		<path class="st15" d="M480.9,20.5c-0.5,0.2-1,0.3-1.4,0.5c-0.5-0.5-1.1-1-1.6-1.6L478,19c0,0,0.2-0.3,0.2-0.3
			C479.3,19.1,480.8,18.7,480.9,20.5z"/>
		<path class="st4" d="M452.9,24.8c0.1-0.5,0.1-1,0.2-1.6c0.7-1.2,1.4-1,1.9,0.2c0,0.5,0,1.1-0.1,1.6
			C454.2,25,453.6,24.9,452.9,24.8z"/>
		<path class="st13" d="M458.9,12.3c-0.2,0.5-0.5,0.6-0.8,0.1C458.3,12.2,458.6,12.1,458.9,12.3z"/>
		<path class="st13" d="M228.1,401c-0.7-7.2,0-14.4,2.3-21.2c1.2-3.5,5.5-3.7,7.9-0.7c7.7,9.5,7.6,27.6-4.7,34.9
			c-4.1,2.4-7.3,6-11.7,8c-2.9,1.3-3.9,0-5.4-1.4c-1.8-1.7-1.3-3.6,0-5.4c1.8-2.5,4.4-4,6.7-5.9c1.3-1.1,1.2-3.1,3.1-3.7
			c-0.4,1.4-0.9,2.8-1.3,4.3c-0.2,1-1.4,2.2,0.2,3c1.1,0.5,2.3,0.3,3.4-0.3c6-3.4,9.7-11,8.5-17.8c-0.3-1.6-0.7-3.4-2.7-3.7
			c-2.2-0.2-2.6,1.6-3.2,3.1C230.1,396.5,231.2,399.7,228.1,401z"/>
		<path class="st5" d="M228.1,401c3.1-1.3,2-4.5,3-6.8c0.6-1.5,1-3.4,3.2-3.1c2.1,0.2,2.4,2,2.7,3.7c1.2,6.8-2.5,14.4-8.5,17.8
			c-1.1,0.6-2.3,0.8-3.4,0.3c-1.7-0.7-0.5-2-0.2-3c0.3-1.4,0.8-2.8,1.3-4.3c0-0.2,0.1-0.3,0.3-0.4c1.2-0.4,1.6-1.2,1.3-2.4
			C227.9,402.2,228,401.6,228.1,401z"/>
		<path class="st13" d="M198,341c-2.4,3.7-5.9,2.6-8.6,1.1c-3.4-1.9-5.1-5.3-3.5-9.4c1.4-3.4,3.7-5.9,7.8-5.7
			c4.3,0.2,6.6,2.8,7.8,6.5C202.6,336.9,201.7,339.7,198,341c-0.4-1.5,0.8-2.4,1.4-3.5c1.7-3.4-0.7-5.3-2.6-7.2
			c-1.8-1.9-4.4-1.8-6.4-0.5c-2.3,1.5-3.8,3.8-2.9,6.8c0.8,2.7,2.4,4.7,5.6,4.6C194.7,341.1,196.4,341,198,341z"/>
		<path class="st13" d="M198,373c4.7,2.2,3.3,5.9,1.3,8.6c-2.2,3.1-5.9,3-8.8,0.8c-2.7-2.1-3.6-5.1-1-8.2
			C192,371.1,194.7,369.3,198,373c-1.3,0.1-2.7-0.2-3.9,0.1c-2.6,0.7-4.4,2.3-3.9,5.3c0.5,2.7,2.6,3.9,5.1,3.4
			c2.7-0.6,4.2-2.6,3.6-5.5C198.6,375.1,197.6,374.2,198,373z"/>
		<path class="st13" d="M211.5,411.4c-0.6,2.2-1.9,4-4.3,4.1c-2.5,0.1-4.7-1-4.9-3.8c-0.2-2.7,1.6-4.2,4.2-4.5
			C209.4,406.8,210.4,409.2,211.5,411.4z M209,411.2c-0.4-1.1-1-2.3-2.7-2.1c-1.3,0.2-2.1,1.1-2.1,2.3c0,1.6,1.4,2.2,2.7,2.2
			C208.2,413.7,208.9,412.7,209,411.2z"/>
		<path class="st13" d="M241.7,333.1c-2.7,0-3.9-1.4-3.7-4c0.2-2.4,1.1-4.2,3.9-4.1c2.7,0.1,4.3,1.7,4.1,4.4
			C245.8,331.9,244.3,333.3,241.7,333.1z M242.2,330.9c1.2,0,1.7-0.7,1.7-1.9c0-1.5-0.7-2.1-2.2-2c-1.6,0.1-1.8,1.2-1.7,2.4
			C240.2,330.8,241.1,331,242.2,330.9z"/>
		<path class="st13" d="M227.8,402.7c0.3,1.2-0.1,2.1-1.3,2.4C226.1,403.9,226.6,403.1,227.8,402.7z"/>
		<path class="st2" d="M108,254c-0.5-6.7,2-12.8,6.3-18.3c1.7-2.2,4.3-4.1,6.8-2.2c2.1,1.7,0.9,4.3-0.6,6.6
			c-3.6,5.8-6.5,11.9-3,18.9c0.6,1.3,0.9,2.8,1.2,4.3c0.6,3.2-1.3,4.2-3.7,3.2c-4.3-1.7-8.1-3.9-6.9-9.7
			C108.1,256.1,108,255.3,108,254z"/>
		<path class="st2" d="M154.9,215c-1.6-0.4-4.4,0.9-4.6-1.6c-0.2-2.8,0.3-5.9,2.6-8.2c4.4-4.5,10.2-6.1,15.9-8.1
			c3.4-1.2,6.2,1,8.6,2.7c2.5,1.7-0.5,6.7-4.6,7.1c-5.4,0.5-10.3,1.3-12.9,6.9C158.9,215.9,156.6,214.7,154.9,215z"/>
		<path class="st1" d="M374.1,423.2c1.3,0.4,3.1-0.4,3.7,1.7c2.9,10,9.6,17.4,16.2,25c0.2,0.2,0.1,0.6,0.2,1
			c-0.1,0.1-0.3,0.3-0.4,0.4c-4.4-0.1-5-5.2-8.6-6.4c-1.7-2.8-4.2-5.5-4.9-8.5c-1.6-6.6-5.7-7.3-11.6-7.5
			c-17.8-0.5-35.5-1.7-53.3-2.7c-1-0.1-1.9-0.5-2.9-0.7c-6.8-1.6-8-0.6-10.8,5.9c-3.7,8.4-9.3,15.4-17.8,20.5
			c-0.4-2.8,1.7-3.6,2.7-4.7c5.6-6,10.8-12.2,14.5-19.7c0.8-1.6,1-3.1,1.2-4.7c8.2,0,16.5,0.1,24.7,0.1
			C342.7,422.9,358.4,423,374.1,423.2z"/>
		<path class="st15" d="M327,422.8c-8.2,0-16.5-0.1-24.7-0.1c0-1.3,0.8-1.7,1.9-1.7c6.9,0,13.9,0.1,20.8,0.1
			C326.1,421.1,326.8,421.6,327,422.8z"/>
		<path class="st1" d="M394.1,450.9c0.8,0.2,1.7,0.1,1.6,1.3c0,0.2-0.4,0.6-0.6,0.6c-1.1,0.1-1.3-0.7-1.5-1.5
			C393.9,451.1,394,451,394.1,450.9z"/>
		<path class="st13" d="M252,214.8c-1.7,0-3.2,0.2-4.7,1.2c-1.5,1-3.1,2-4.8,2.4c-2.3,0.6-5.3,1.7-6.9-0.5c-1.5-2.1,0.5-4.6,2-6.1
			c3.7-3.7,7.5-7.3,13.4-6.6c-0.4,0.6-0.7,1.2-1.1,1.8c-2.1-0.4-3.1,1.8-4.9,2.1c-2.3,0.4-3.3,2.1-2.6,3.9c0.8,2.1,2.5,0.2,3.9,0.2
			c0.7,0,1.4,0,2-0.2c5.1-1.7,10.3-3.1,15.2-7.6c-3.4-0.2-5.5-0.4-7.7-0.6c3.1-1.8,6.5-0.8,9.7-0.8c1.2,0,2.9,0.4,3.1,1.9
			c0.2,1.7-1.3,2.5-2.7,3c-2.8,1.1-6,1.3-8.1,3.9c-1.9,0.2-4.2-0.6-5.3,1.9l-0.3-0.1L252,214.8z"/>
		<path class="st4" d="M257.8,212.9c2.1-2.6,5.3-2.8,8.1-3.9c1.4-0.6,3-1.3,2.7-3c-0.2-1.5-1.9-1.9-3.1-1.9c-3.2,0-6.6-1-9.7,0.8
			c-1.3,0-2.5,0-3.8,0c1-0.6,2-1.2,3-1.8c3.8,0,7.6,0,11.4,0c3.3,0,6.9,0.6,7.3,4.2c0.5,4.2-3.8,4.8-6.8,5.8
			c-1.8,0.6-3.9,0.2-5.9,0.2C260,213,258.9,212.9,257.8,212.9z"/>
		<path class="st14" d="M257.8,212.9c1.1,0.1,2.2,0.2,3.3,0.2c-2.2,3.8-5.7,1.2-8.5,1.7C253.6,212.2,255.9,213,257.8,212.9z"/>
		<path class="st13" d="M270.7,528.1c2.7,0.8,7.5-0.3,8.3,3.2c0.7,3-4,3.2-6.4,4.4c-6.9,3.6-14.5,4.9-21.9,6.8
			c-2.3,0.6-4.4-0.1-5.4-2.4c-1-2.3,0.6-3.8,2.3-4.9C254.6,531.2,262.1,528.6,270.7,528.1z"/>
		<path class="st14" d="M295.2,337.5c0-10.4,0-20.9,0-31.3c0.2,0,0.3,0,0.5,0c0,10.6,0,21.2,0,31.8
			C295.5,337.8,295.3,337.7,295.2,337.5z"/>
		<path class="st4" d="M312.1,145.9c0.1,0.2,0.2,0.4,0.3,0.5c-0.2-0.1-0.4-0.2-0.5-0.3C311.9,146.1,312.1,145.9,312.1,145.9z"/>
		<path class="st1" d="M410,193c-0.3,0-0.5-0.1-0.8-0.1c0.1-0.2,0.2-0.4,0.3-0.6C409.7,192.5,409.8,192.8,410,193L410,193z"/>
		<path class="st5" d="M252,204.8c1.3,0,2.5,0,3.8,0c2.1,0.2,4.3,0.3,7.7,0.6c-4.9,4.5-10.1,5.9-15.2,7.6c-0.6,0.2-1.3,0.2-2,0.2
			c-1.3,0-3.1,1.9-3.9-0.2c-0.7-1.8,0.3-3.5,2.6-3.9c3.8,5.3,6.1-1.7,9.4-0.6c-1.3-2-3.1-1.1-4.5-1.5c0.4-0.6,0.7-1.2,1.1-1.8
			C251.3,205,251.7,204.9,252,204.8z"/>
		<path class="st13" d="M455,23.4c-0.6-1.1-1.2-1.4-1.9-0.2c-0.9-0.1-1.8-0.3-2.6-0.4c-1.5-3.3-5.1-1.2-7.4-2.9
			c-1.9-1.4-5.5-0.8-6-4.1c-0.5-3.4,3.5-2.1,4.6-3.9c0.1-0.1,0-0.3,0-0.5c1.3-0.1,2.6-0.2,3.9-0.2c-0.1,0.3-0.2,0.7-0.3,1
			c-2.8,4.8,1.3,5.9,4.1,6.6c6.1,1.5,12.3,2.2,18.5,3.2c5,0.9,3.9-2.2,3.4-5c2.3-0.6,3.6,1.5,5.5,2.1c0,1.1,0.6,0.7,1.2,0.4
			c0.5,0.5,1.1,1,1.6,1.6c-0.7,4-2.5,5.2-6.9,4.5c-4.5-0.7-8.7-3.5-13.6-2C457.7,23.5,456.3,23.4,455,23.4z"/>
		<path class="st13" d="M446.4,11.1c1.5,0.1,3.3-0.9,4.5,0.9c-1.4,1.6-2.8,1.3-4.2,0C446.8,11.6,446.7,11.3,446.4,11.1z"/>
		<path class="st4" d="M446.4,11.1c0.2,0.3,0.3,0.6,0.3,0.9c-0.5,0.1-1.1,0.1-1.6,0.2c0.1-0.3,0.2-0.7,0.3-1
			C445.8,11.1,446.1,11.1,446.4,11.1z"/>
		<path class="st4" d="M441.6,11.4c0,0.2,0.1,0.4,0,0.5c-1.1,1.8-5.1,0.5-4.6,3.9c0.5,3.3,4.1,2.7,6,4.1c2.3,1.7,5.9-0.4,7.4,2.9
			c-5.7,1.1-10.6-1.8-15.7-3.1c-1.6-0.4-3.1-1.8-3.3-3.4c-0.2-1.9,1.9-2.5,3.3-3.2C436.8,12.1,439,10.7,441.6,11.4z"/>
		<path class="st4" d="M477.9,19.5c-0.5,0.3-1.2,0.7-1.2-0.4c0.4,0,0.8,0,1.3,0C478,19,477.9,19.5,477.9,19.5z"/>
		<path class="st4" d="M198,341c-1.6,0-3.3,0.1-4.9,0.1c-3.2,0-4.8-1.9-5.6-4.6c-0.8-2.9,0.7-5.3,2.9-6.8c2-1.3,4.6-1.4,6.4,0.5
			c1.9,1.9,4.3,3.9,2.6,7.2C198.8,338.6,197.6,339.5,198,341C198,341,198,341,198,341z"/>
		<path class="st4" d="M198,373c-0.4,1.3,0.7,2.1,0.9,3.3c0.6,3-0.9,5-3.6,5.5c-2.5,0.5-4.6-0.7-5.1-3.4c-0.5-2.9,1.3-4.6,3.9-5.3
			C195.3,372.8,196.7,373,198,373C198,373,198,373,198,373z"/>
		<path class="st4" d="M209,411.2c-0.1,1.4-0.7,2.5-2,2.4c-1.3-0.1-2.7-0.6-2.7-2.2c0-1.2,0.8-2.1,2.1-2.3
			C208,408.9,208.5,410.1,209,411.2z"/>
		<path class="st14" d="M242.2,330.9c-1.1,0.1-2-0.1-2.1-1.4c-0.1-1.2,0.1-2.3,1.7-2.4c1.4-0.1,2.2,0.5,2.2,2
			C243.9,330.3,243.4,330.9,242.2,330.9z"/>
		<path class="st6" d="M249.9,206.9c1.5,0.4,3.2-0.6,4.5,1.5c-3.3-1-5.6,5.9-9.4,0.6C246.8,208.7,247.8,206.5,249.9,206.9z"/>
</svg>
